<svg xmlns="http://www.w3.org/2000/svg" shape-rendering="geometricPrecision" text-rendering="geometricPrecision" image-rendering="optimizeQuality" fill-rule="evenodd" clip-rule="evenodd" viewBox="0 0 469 511.83"><path fill-rule="nonzero" d="M132.43 488.32c-.83-.41-1.6-.88-2.33-1.39-1.1-.32-2.2-.74-3.29-1.3a235.796 235.796 0 0 1-32.47-20.1c-10.56-7.82-9.1-24.17 2.7-29.99 5.92-2.96 13.05-2.28 18.36 1.65 8.7 6.43 17.89 12.08 27.51 17.02.9.47 1.75 1 2.53 1.58.84.26 1.67.59 2.49.98l.01-.03c17.55 8.48 35.74 14.15 54.04 17.19.82.01 1.65.07 2.5.2 3.27.5 6.54.95 9.83 1.3.69.09 1.36.2 2.01.35 28.62 2.63 57.2-1.03 83.82-10.32 48.12-16.78 89.85-51.93 113.77-101.46 23.92-49.54 25.51-104.08 8.72-152.21-16.78-48.12-51.93-89.85-101.46-113.77-17.3-8.35-35.2-13.98-53.21-17.04a198.53 198.53 0 0 0-42.83-2.58l3.85 3.57c7.95 7.35 8.43 19.75 1.08 27.7-7.36 7.95-19.76 8.43-27.71 1.08L162.11 73.5c-7.3-6.75-8.3-17.78-2.71-25.69.97-1.76 2.22-3.4 3.77-4.86l39.9-37.61c7.9-7.44 20.34-7.06 27.78.85 7.44 7.9 7.06 20.34-.85 27.78l-9.98 9.41c17.78-1.12 35.81-.21 53.73 2.84 21.26 3.62 42.36 10.25 62.73 20.08 58.27 28.15 99.64 77.26 119.39 133.91 19.75 56.65 17.9 120.82-10.24 179.1-28.14 58.27-77.25 99.63-133.9 119.39-56.65 19.75-120.82 17.9-179.1-10.24l.02-.03-.22-.11zm64.47-306.08c0-10.03 8.13-18.16 18.16-18.16s18.16 8.13 18.16 18.16v110.52l75.65 33.25c9.16 4.04 13.32 14.74 9.29 23.9-4.04 9.17-14.74 13.33-23.9 9.29l-85.58-37.61c-6.88-2.59-11.78-9.22-11.78-17.01V182.24zM41.35 411.05c8.85 12.7 28.65 8.66 31.79-6.53.95-4.86 0-9.53-2.79-13.62-6.2-9.02-11.52-18.1-16.23-27.99-4.71-9.88-17.01-13.15-26.03-6.95a17.653 17.653 0 0 0-5.88 22.05c5.56 11.67 11.82 22.39 19.14 33.04zM1.42 304.77c.86 7.41 6.01 13.31 13.22 15.2 11.98 2.99 23.17-6.8 21.88-19.05-1.21-10.78-1.49-21.55-.94-32.38a17.67 17.67 0 0 0-12-17.68C12.52 247.17.93 254.99.33 266.66c-.67 12.71-.32 25.45 1.09 38.11zm14.84-112.36c-5.36 13.61 7.38 27.49 21.42 23.37 5.24-1.53 9.46-5.43 11.45-10.5 3.93-10.12 8.67-19.83 14.17-29.19 3.31-5.74 3.28-12.47-.12-18.16-7.04-11.37-23.43-11.27-30.28.21a233.5 233.5 0 0 0-16.64 34.27zm65.37-92.63c-10.81 9.47-6.65 26.95 7.29 30.51 5.65 1.37 11.34-.01 15.76-3.76 8.27-7.12 16.88-13.39 26.17-19.1 5.29-3.23 8.38-8.85 8.45-15.02 0-13.8-15.09-22.29-26.86-15.11-10.9 6.67-21.12 14.16-30.81 22.48z"/></svg>