<svg id="Layer_1" data-name="Layer 1" xmlns="http://www.w3.org/2000/svg" viewBox="0 0 1539.72 352.02">
<defs>
    <style type="text/css">
    .cls-1 {
        fill: #1d2939;
    }

    .cls-2 {
        fill: #2e90fa;
    }

    .cls-3 {
        fill: #16b364;
    }

    .cls-4 {
        fill: #fac515;
    }
    </style>
</defs>
<g id="Logo">
    <path class="cls-2" d="M255.44,49.88L49.88,255.44c-6.73,6.73-17.95,5.56-23.17-2.4C9.82,227.31,0,196.54,0,163.46,0,73.09,73.09,0,163.46,0c33.07,0,63.85,9.82,89.58,26.71,7.96,5.23,9.13,16.44,2.4,23.17Z"/>
    <path class="cls-3" d="M326.92,163.46c0,33.09-9.83,63.89-26.74,89.62-5.01,7.63-15.6,9.26-22.49,3.27-28.68-24.94-66.16-40.03-107.16-40.03-1.01,0-2.03,0-3.04,.03-13.44,.24-20.26-16.1-10.76-25.6l119.89-119.89c6.73-6.73,17.9-5.55,23.16,2.38,17.15,25.86,27.14,56.87,27.14,90.23Z"/>
    <path class="cls-4" d="M257.75,280.75c5.58,3.95,5.58,12.3,0,16.25-26.64,18.84-59.17,29.91-94.28,29.91s-67.64-11.08-94.28-29.91c-5.59-3.95-5.59-12.3,0-16.25,26.64-18.85,59.17-29.92,94.29-29.92s67.64,11.08,94.29,29.92Z"/>
</g>
<g>
    <path class="cls-1" d="M405.1,245.24V81.6h34.6V216.72h70.15v28.52h-104.75Z"/>
    <path class="cls-1" d="M631.6,81.6h34.6v106.27c0,11.93-2.84,22.37-8.51,31.32-5.67,8.95-13.6,15.91-23.77,20.89-10.17,4.98-22.03,7.47-35.56,7.47s-25.46-2.49-35.64-7.47c-10.17-4.98-18.08-11.95-23.73-20.89-5.65-8.95-8.47-19.39-8.47-31.32V81.6h34.6v103.31c0,6.23,1.37,11.77,4.11,16.62,2.74,4.85,6.62,8.66,11.63,11.43,5.01,2.77,10.84,4.16,17.5,4.16s12.56-1.38,17.54-4.16c4.98-2.77,8.84-6.58,11.59-11.43,2.74-4.85,4.11-10.39,4.11-16.62V81.6Z"/>
    <path class="cls-1" d="M836.77,138.89h-35c-.64-4.53-1.95-8.56-3.92-12.1-1.97-3.54-4.5-6.56-7.59-9.07-3.09-2.5-6.64-4.42-10.67-5.75-4.02-1.33-8.38-2-13.06-2-8.47,0-15.85,2.09-22.13,6.27-6.29,4.18-11.16,10.25-14.62,18.22-3.46,7.96-5.19,17.62-5.19,28.96s1.74,21.47,5.23,29.4c3.49,7.94,8.38,13.93,14.66,17.98,6.28,4.05,13.56,6.07,21.81,6.07,4.63,0,8.93-.61,12.9-1.84,3.97-1.22,7.5-3.02,10.59-5.39,3.09-2.37,5.66-5.26,7.71-8.67,2.05-3.41,3.48-7.3,4.27-11.67l35,.16c-.91,7.51-3.16,14.74-6.75,21.69-3.6,6.95-8.42,13.16-14.46,18.62-6.05,5.46-13.24,9.78-21.57,12.94-8.34,3.17-17.75,4.75-28.25,4.75-14.6,0-27.63-3.3-39.11-9.91-11.48-6.6-20.53-16.17-27.17-28.68-6.63-12.52-9.95-27.67-9.95-45.46s3.36-33.02,10.07-45.54c6.71-12.52,15.82-22.07,27.33-28.64,11.51-6.58,24.45-9.87,38.83-9.87,9.48,0,18.28,1.33,26.41,4,8.12,2.66,15.33,6.54,21.61,11.63,6.28,5.09,11.41,11.31,15.38,18.66,3.97,7.35,6.51,15.77,7.63,25.25Z"/>
    <path class="cls-1" d="M893.97,81.6V245.24h-34.6V81.6h34.6Z"/>
    <path class="cls-1" d="M978.25,245.24h-58.01V81.6h58.49c16.46,0,30.63,3.26,42.51,9.79,11.88,6.53,21.03,15.89,27.45,28.08,6.42,12.2,9.63,26.79,9.63,43.79s-3.21,31.69-9.63,43.95c-6.42,12.25-15.61,21.65-27.57,28.2-11.96,6.55-26.25,9.83-42.87,9.83Zm-23.41-29.64h21.97c10.23,0,18.84-1.82,25.85-5.47,7-3.65,12.28-9.32,15.82-17.02,3.54-7.7,5.31-17.64,5.31-29.84s-1.77-21.97-5.31-29.64c-3.54-7.67-8.8-13.32-15.78-16.94-6.98-3.62-15.58-5.43-25.81-5.43h-22.05v104.35Z"/>
    <path class="cls-1" d="M1131.55,245.24V81.6h110.26v28.52h-75.67v38.99h69.99v28.52h-69.99v39.07h75.99v28.52h-110.58Z"/>
    <path class="cls-1" d="M1267.13,245.24V81.6h34.6V216.72h70.15v28.52h-104.75Z"/>
    <path class="cls-1" d="M1450.56,245.24h-58.01V81.6h58.49c16.46,0,30.63,3.26,42.51,9.79,11.88,6.53,21.03,15.89,27.45,28.08,6.42,12.2,9.63,26.79,9.63,43.79s-3.21,31.69-9.63,43.95c-6.42,12.25-15.61,21.65-27.57,28.2-11.96,6.55-26.25,9.83-42.87,9.83Zm-23.41-29.64h21.97c10.23,0,18.84-1.82,25.85-5.47,7-3.65,12.28-9.32,15.82-17.02,3.54-7.7,5.31-17.64,5.31-29.84s-1.77-21.97-5.31-29.64c-3.54-7.67-8.8-13.32-15.78-16.94-6.98-3.62-15.58-5.43-25.81-5.43h-22.05v104.35Z"/>
</g>
</svg>

