<?xml version="1.0" encoding="utf-8"?>
<!-- Generator: Adobe Illustrator 26.5.0, SVG Export Plug-In . SVG Version: 6.00 Build 0)  -->
<svg version="1.1" id="Layer_1" xmlns="http://www.w3.org/2000/svg" xmlns:xlink="http://www.w3.org/1999/xlink" x="0px" y="0px"
	 viewBox="0 0 100 100" style="enable-background:new 0 0 100 100;" xml:space="preserve">
<style type="text/css">
	.st0{fill:#5088C7;}
	.st1{fill:#1AB364;}
	.st2{fill:#F9C618;}
</style>
<g id="Logo">
	<path class="st0" d="M78,15.7L15.7,77.9c-2,2-5.5,1.7-7-0.7c-5.1-7.8-8.1-17.1-8.1-27.1c0-27.4,22.1-49.5,49.5-49.5
		c10,0,19.3,3,27.1,8.1C79.7,10.2,80.1,13.6,78,15.7z"/>
	<path class="st1" d="M99.7,50.1c0,10-3,19.4-8.1,27.1c-1.5,2.3-4.7,2.8-6.8,1c-8.7-7.5-20.1-12.1-32.5-12.1c-0.3,0-0.6,0-0.9,0
		c-4.1,0.1-6.2-4.9-3.3-7.8L84.4,22c2-2,5.4-1.7,7,0.7C96.6,30.6,99.7,40,99.7,50.1L99.7,50.1z"/>
	<path class="st2" d="M78.7,85.6c1.7,1.2,1.7,3.7,0,4.9c-8.1,5.7-17.9,9.1-28.6,9.1s-20.5-3.4-28.6-9.1c-1.7-1.2-1.7-3.7,0-4.9
		c8.1-5.7,17.9-9.1,28.6-9.1S70.6,79.9,78.7,85.6L78.7,85.6z"/>
</g>
</svg>
