<svg width="1512" height="201" viewBox="0 0 1512 201" fill="none" xmlns="http://www.w3.org/2000/svg">
<path d="M1507 158H41V199H1507V158Z" fill="#EFF8FF"/>
<path d="M1506 116H41V158H1506V116Z" fill="#ECFDF3"/>
<path d="M40.5 32.9995V200" stroke="#98A2B3"/>
<path d="M99.0156 23.1157V198.995" stroke="#98A2B3"/>
<path d="M44.2393 70.0005V73.9568" stroke="#98A2B3"/>
<path d="M74.8779 70.0005V73.9568" stroke="#98A2B3"/>
<path d="M59.5576 70.0005V73.9568" stroke="#98A2B3"/>
<path d="M90.1963 70.0005V73.9568" stroke="#98A2B3"/>
<path d="M49.3457 70.0005V73.9568" stroke="#98A2B3"/>
<path d="M79.9834 70.0005V73.9568" stroke="#98A2B3"/>
<path d="M64.665 70.0005V73.9568" stroke="#98A2B3"/>
<path d="M95.3027 70.0005V73.9568" stroke="#98A2B3"/>
<path d="M54.4521 65.0547V73.9564" stroke="#98A2B3"/>
<path d="M85.0908 65.0547V73.9564" stroke="#98A2B3"/>
<path d="M69.7705 53.186V73.9568" stroke="#98A2B3"/>
<path d="M44.2393 112.547V116.503" stroke="#98A2B3"/>
<path d="M74.8779 112.547V116.503" stroke="#98A2B3"/>
<path d="M59.5576 112.547V116.503" stroke="#98A2B3"/>
<path d="M90.1963 112.547V116.503" stroke="#98A2B3"/>
<path d="M49.3457 112.547V116.503" stroke="#98A2B3"/>
<path d="M79.9834 112.547V116.503" stroke="#98A2B3"/>
<path d="M64.665 112.547V116.503" stroke="#98A2B3"/>
<path d="M95.3027 112.547V116.503" stroke="#98A2B3"/>
<path d="M54.4521 107.601V116.503" stroke="#98A2B3"/>
<path d="M85.0908 107.601V116.503" stroke="#98A2B3"/>
<path d="M69.7705 95.7314V116.502" stroke="#98A2B3"/>
<path d="M44.2393 154.088V158.045" stroke="#98A2B3"/>
<path d="M74.8779 154.088V158.045" stroke="#98A2B3"/>
<path d="M59.5576 154.088V158.045" stroke="#98A2B3"/>
<path d="M90.1963 154.088V158.045" stroke="#98A2B3"/>
<path d="M49.3457 154.088V158.045" stroke="#98A2B3"/>
<path d="M79.9834 154.088V158.045" stroke="#98A2B3"/>
<path d="M64.665 154.088V158.045" stroke="#98A2B3"/>
<path d="M95.3027 154.088V158.045" stroke="#98A2B3"/>
<path d="M54.4521 149.143V158.045" stroke="#98A2B3"/>
<path d="M85.0908 149.143V158.045" stroke="#98A2B3"/>
<path d="M69.7705 137.274V158.045" stroke="#98A2B3"/>
<path d="M44.2393 195.63V199.587" stroke="#98A2B3"/>
<path d="M74.8779 195.63V199.587" stroke="#98A2B3"/>
<path d="M59.5576 195.63V199.587" stroke="#98A2B3"/>
<path d="M90.1963 195.63V199.587" stroke="#98A2B3"/>
<path d="M49.3457 195.63V199.587" stroke="#98A2B3"/>
<path d="M79.9834 195.63V199.587" stroke="#98A2B3"/>
<path d="M64.665 195.63V199.587" stroke="#98A2B3"/>
<path d="M95.3027 195.63V199.587" stroke="#98A2B3"/>
<path d="M54.4521 190.685V199.587" stroke="#98A2B3"/>
<path d="M85.0908 190.685V199.587" stroke="#98A2B3"/>
<path d="M69.7705 178.816V199.587" stroke="#98A2B3"/>
<path d="M102.729 70.0005V73.9568" stroke="#98A2B3"/>
<path d="M133.368 70.0005V73.9568" stroke="#98A2B3"/>
<path d="M118.047 70.0005V73.9568" stroke="#98A2B3"/>
<path d="M148.686 70.0005V73.9568" stroke="#98A2B3"/>
<path d="M107.835 70.0005V73.9568" stroke="#98A2B3"/>
<path d="M138.474 70.0005V73.9568" stroke="#98A2B3"/>
<path d="M123.154 70.0005V73.9568" stroke="#98A2B3"/>
<path d="M153.793 70.0005V73.9568" stroke="#98A2B3"/>
<path d="M112.941 65.0547V73.9564" stroke="#98A2B3"/>
<path d="M143.58 65.0547V73.9564" stroke="#98A2B3"/>
<path d="M128.261 53.186V73.9568" stroke="#98A2B3"/>
<path d="M102.729 112.547V116.503" stroke="#98A2B3"/>
<path d="M133.368 112.547V116.503" stroke="#98A2B3"/>
<path d="M118.047 112.547V116.503" stroke="#98A2B3"/>
<path d="M148.686 112.547V116.503" stroke="#98A2B3"/>
<path d="M107.835 112.547V116.503" stroke="#98A2B3"/>
<path d="M138.474 112.547V116.503" stroke="#98A2B3"/>
<path d="M123.154 112.547V116.503" stroke="#98A2B3"/>
<path d="M153.793 112.547V116.503" stroke="#98A2B3"/>
<path d="M112.941 107.601V116.503" stroke="#98A2B3"/>
<path d="M143.58 107.601V116.503" stroke="#98A2B3"/>
<path d="M128.261 95.7314V116.502" stroke="#98A2B3"/>
<path d="M102.729 154.088V158.045" stroke="#98A2B3"/>
<path d="M133.368 154.088V158.045" stroke="#98A2B3"/>
<path d="M118.047 154.088V158.045" stroke="#98A2B3"/>
<path d="M148.686 154.088V158.045" stroke="#98A2B3"/>
<path d="M107.835 154.088V158.045" stroke="#98A2B3"/>
<path d="M138.474 154.088V158.045" stroke="#98A2B3"/>
<path d="M123.154 154.088V158.045" stroke="#98A2B3"/>
<path d="M153.793 154.088V158.045" stroke="#98A2B3"/>
<path d="M112.941 149.143V158.045" stroke="#98A2B3"/>
<path d="M143.58 149.143V158.045" stroke="#98A2B3"/>
<path d="M128.261 137.274V158.045" stroke="#98A2B3"/>
<path d="M102.729 195.63V199.586" stroke="#98A2B3"/>
<path d="M133.368 195.63V199.586" stroke="#98A2B3"/>
<path d="M118.047 195.63V199.586" stroke="#98A2B3"/>
<path d="M148.686 195.63V199.586" stroke="#98A2B3"/>
<path d="M107.835 195.63V199.586" stroke="#98A2B3"/>
<path d="M138.474 195.63V199.586" stroke="#98A2B3"/>
<path d="M123.154 195.63V199.586" stroke="#98A2B3"/>
<path d="M153.793 195.63V199.586" stroke="#98A2B3"/>
<path d="M112.941 190.685V199.586" stroke="#98A2B3"/>
<path d="M143.58 190.685V199.586" stroke="#98A2B3"/>
<path d="M128.261 178.815V199.586" stroke="#98A2B3"/>
<path d="M159.016 23.1157V198.995" stroke="#98A2B3"/>
<path d="M162.729 70.0005V73.9568" stroke="#98A2B3"/>
<path d="M193.368 70.0005V73.9568" stroke="#98A2B3"/>
<path d="M178.047 70.0005V73.9568" stroke="#98A2B3"/>
<path d="M208.686 70.0005V73.9568" stroke="#98A2B3"/>
<path d="M167.835 70.0005V73.9568" stroke="#98A2B3"/>
<path d="M198.474 70.0005V73.9568" stroke="#98A2B3"/>
<path d="M183.154 70.0005V73.9568" stroke="#98A2B3"/>
<path d="M213.793 70.0005V73.9568" stroke="#98A2B3"/>
<path d="M172.941 65.0547V73.9564" stroke="#98A2B3"/>
<path d="M203.58 65.0547V73.9564" stroke="#98A2B3"/>
<path d="M188.261 53.186V73.9568" stroke="#98A2B3"/>
<path d="M162.729 112.547V116.503" stroke="#98A2B3"/>
<path d="M193.368 112.547V116.503" stroke="#98A2B3"/>
<path d="M178.047 112.547V116.503" stroke="#98A2B3"/>
<path d="M208.686 112.547V116.503" stroke="#98A2B3"/>
<path d="M167.835 112.547V116.503" stroke="#98A2B3"/>
<path d="M198.474 112.547V116.503" stroke="#98A2B3"/>
<path d="M183.154 112.547V116.503" stroke="#98A2B3"/>
<path d="M213.793 112.547V116.503" stroke="#98A2B3"/>
<path d="M172.941 107.601V116.503" stroke="#98A2B3"/>
<path d="M203.58 107.601V116.503" stroke="#98A2B3"/>
<path d="M188.261 95.7314V116.502" stroke="#98A2B3"/>
<path d="M162.729 154.088V158.045" stroke="#98A2B3"/>
<path d="M193.368 154.088V158.045" stroke="#98A2B3"/>
<path d="M178.047 154.088V158.045" stroke="#98A2B3"/>
<path d="M208.686 154.088V158.045" stroke="#98A2B3"/>
<path d="M167.835 154.088V158.045" stroke="#98A2B3"/>
<path d="M198.474 154.088V158.045" stroke="#98A2B3"/>
<path d="M183.154 154.088V158.045" stroke="#98A2B3"/>
<path d="M213.793 154.088V158.045" stroke="#98A2B3"/>
<path d="M172.941 149.143V158.045" stroke="#98A2B3"/>
<path d="M203.58 149.143V158.045" stroke="#98A2B3"/>
<path d="M188.261 137.274V158.045" stroke="#98A2B3"/>
<path d="M162.729 195.63V199.586" stroke="#98A2B3"/>
<path d="M193.368 195.63V199.586" stroke="#98A2B3"/>
<path d="M178.047 195.63V199.586" stroke="#98A2B3"/>
<path d="M208.686 195.63V199.586" stroke="#98A2B3"/>
<path d="M167.835 195.63V199.586" stroke="#98A2B3"/>
<path d="M198.474 195.63V199.586" stroke="#98A2B3"/>
<path d="M183.154 195.63V199.586" stroke="#98A2B3"/>
<path d="M213.793 195.63V199.586" stroke="#98A2B3"/>
<path d="M172.941 190.685V199.586" stroke="#98A2B3"/>
<path d="M203.58 190.685V199.586" stroke="#98A2B3"/>
<path d="M188.261 178.815V199.586" stroke="#98A2B3"/>
<path d="M223.221 70.0005V73.9568" stroke="#98A2B3"/>
<path d="M253.859 70.0005V73.9568" stroke="#98A2B3"/>
<path d="M238.539 70.0005V73.9568" stroke="#98A2B3"/>
<path d="M269.178 70.0005V73.9568" stroke="#98A2B3"/>
<path d="M228.326 70.0005V73.9568" stroke="#98A2B3"/>
<path d="M258.965 70.0005V73.9568" stroke="#98A2B3"/>
<path d="M243.646 70.0005V73.9568" stroke="#98A2B3"/>
<path d="M274.284 70.0005V73.9568" stroke="#98A2B3"/>
<path d="M233.434 65.0547V73.9564" stroke="#98A2B3"/>
<path d="M264.071 65.0547V73.9564" stroke="#98A2B3"/>
<path d="M248.752 53.186V73.9568" stroke="#98A2B3"/>
<path d="M223.221 112.547V116.503" stroke="#98A2B3"/>
<path d="M253.859 112.547V116.503" stroke="#98A2B3"/>
<path d="M238.539 112.547V116.503" stroke="#98A2B3"/>
<path d="M269.178 112.547V116.503" stroke="#98A2B3"/>
<path d="M228.326 112.547V116.503" stroke="#98A2B3"/>
<path d="M258.965 112.547V116.503" stroke="#98A2B3"/>
<path d="M243.646 112.547V116.503" stroke="#98A2B3"/>
<path d="M274.284 112.547V116.503" stroke="#98A2B3"/>
<path d="M233.434 107.601V116.504" stroke="#98A2B3"/>
<path d="M264.071 107.601V116.504" stroke="#98A2B3"/>
<path d="M248.752 95.7324V116.503" stroke="#98A2B3"/>
<path d="M223.221 154.087V158.044" stroke="#98A2B3"/>
<path d="M253.859 154.087V158.044" stroke="#98A2B3"/>
<path d="M238.539 154.087V158.044" stroke="#98A2B3"/>
<path d="M269.178 154.087V158.044" stroke="#98A2B3"/>
<path d="M228.326 154.087V158.044" stroke="#98A2B3"/>
<path d="M258.965 154.087V158.044" stroke="#98A2B3"/>
<path d="M243.646 154.087V158.044" stroke="#98A2B3"/>
<path d="M274.284 154.087V158.044" stroke="#98A2B3"/>
<path d="M233.433 149.143V158.044" stroke="#98A2B3"/>
<path d="M264.071 149.143V158.044" stroke="#98A2B3"/>
<path d="M248.752 137.273V158.044" stroke="#98A2B3"/>
<path d="M223.221 195.63V199.586" stroke="#98A2B3"/>
<path d="M253.859 195.63V199.586" stroke="#98A2B3"/>
<path d="M238.539 195.63V199.586" stroke="#98A2B3"/>
<path d="M269.178 195.63V199.586" stroke="#98A2B3"/>
<path d="M228.326 195.63V199.586" stroke="#98A2B3"/>
<path d="M258.965 195.63V199.586" stroke="#98A2B3"/>
<path d="M243.646 195.63V199.586" stroke="#98A2B3"/>
<path d="M274.284 195.63V199.586" stroke="#98A2B3"/>
<path d="M233.434 190.685V199.587" stroke="#98A2B3"/>
<path d="M264.071 190.685V199.587" stroke="#98A2B3"/>
<path d="M248.752 178.815V199.586" stroke="#98A2B3"/>
<path d="M281.711 70.0005V73.9568" stroke="#98A2B3"/>
<path d="M312.35 70.0005V73.9568" stroke="#98A2B3"/>
<path d="M297.03 70.0005V73.9568" stroke="#98A2B3"/>
<path d="M327.669 70.0005V73.9568" stroke="#98A2B3"/>
<path d="M286.818 70.0005V73.9568" stroke="#98A2B3"/>
<path d="M317.457 70.0005V73.9568" stroke="#98A2B3"/>
<path d="M302.137 70.0005V73.9568" stroke="#98A2B3"/>
<path d="M332.774 70.0005V73.9568" stroke="#98A2B3"/>
<path d="M291.925 65.0547V73.9564" stroke="#98A2B3"/>
<path d="M322.562 65.0547V73.9564" stroke="#98A2B3"/>
<path d="M307.242 53.186V73.9568" stroke="#98A2B3"/>
<path d="M281.711 112.547V116.504" stroke="#98A2B3"/>
<path d="M312.35 112.547V116.504" stroke="#98A2B3"/>
<path d="M297.03 112.547V116.504" stroke="#98A2B3"/>
<path d="M327.669 112.547V116.504" stroke="#98A2B3"/>
<path d="M286.818 112.547V116.504" stroke="#98A2B3"/>
<path d="M317.457 112.547V116.504" stroke="#98A2B3"/>
<path d="M302.137 112.547V116.504" stroke="#98A2B3"/>
<path d="M332.774 112.547V116.504" stroke="#98A2B3"/>
<path d="M291.925 107.601V116.504" stroke="#98A2B3"/>
<path d="M322.562 107.601V116.504" stroke="#98A2B3"/>
<path d="M307.242 95.7324V116.503" stroke="#98A2B3"/>
<path d="M281.711 154.087V158.044" stroke="#98A2B3"/>
<path d="M312.351 154.087V158.044" stroke="#98A2B3"/>
<path d="M297.031 154.087V158.044" stroke="#98A2B3"/>
<path d="M327.669 154.087V158.044" stroke="#98A2B3"/>
<path d="M286.818 154.087V158.044" stroke="#98A2B3"/>
<path d="M317.457 154.087V158.044" stroke="#98A2B3"/>
<path d="M302.138 154.087V158.044" stroke="#98A2B3"/>
<path d="M332.775 154.087V158.044" stroke="#98A2B3"/>
<path d="M291.925 149.142V158.044" stroke="#98A2B3"/>
<path d="M322.563 149.142V158.044" stroke="#98A2B3"/>
<path d="M307.243 137.273V158.044" stroke="#98A2B3"/>
<path d="M281.711 195.629V199.586" stroke="#98A2B3"/>
<path d="M312.351 195.629V199.586" stroke="#98A2B3"/>
<path d="M297.031 195.629V199.586" stroke="#98A2B3"/>
<path d="M327.669 195.629V199.586" stroke="#98A2B3"/>
<path d="M286.818 195.629V199.586" stroke="#98A2B3"/>
<path d="M317.457 195.629V199.586" stroke="#98A2B3"/>
<path d="M302.138 195.629V199.586" stroke="#98A2B3"/>
<path d="M332.775 195.629V199.586" stroke="#98A2B3"/>
<path d="M291.925 190.684V199.586" stroke="#98A2B3"/>
<path d="M322.563 190.684V199.586" stroke="#98A2B3"/>
<path d="M307.243 178.815V199.586" stroke="#98A2B3"/>
<path d="M340.204 70.0005V73.9568" stroke="#98A2B3"/>
<path d="M370.843 70.0005V73.9568" stroke="#98A2B3"/>
<path d="M355.522 70.0005V73.9568" stroke="#98A2B3"/>
<path d="M386.161 70.0005V73.9568" stroke="#98A2B3"/>
<path d="M345.311 70.0005V73.9568" stroke="#98A2B3"/>
<path d="M375.948 70.0005V73.9568" stroke="#98A2B3"/>
<path d="M360.629 70.0005V73.9568" stroke="#98A2B3"/>
<path d="M391.267 70.0005V73.9568" stroke="#98A2B3"/>
<path d="M350.417 65.0547V73.9564" stroke="#98A2B3"/>
<path d="M381.055 65.0547V73.9564" stroke="#98A2B3"/>
<path d="M365.735 53.186V73.9568" stroke="#98A2B3"/>
<path d="M340.204 112.547V116.503" stroke="#98A2B3"/>
<path d="M370.843 112.547V116.503" stroke="#98A2B3"/>
<path d="M355.522 112.547V116.503" stroke="#98A2B3"/>
<path d="M386.161 112.547V116.503" stroke="#98A2B3"/>
<path d="M345.311 112.547V116.503" stroke="#98A2B3"/>
<path d="M375.948 112.547V116.503" stroke="#98A2B3"/>
<path d="M360.629 112.547V116.503" stroke="#98A2B3"/>
<path d="M391.267 112.547V116.503" stroke="#98A2B3"/>
<path d="M350.417 107.601V116.503" stroke="#98A2B3"/>
<path d="M381.055 107.601V116.503" stroke="#98A2B3"/>
<path d="M365.735 95.7314V116.502" stroke="#98A2B3"/>
<path d="M340.203 154.088V158.045" stroke="#98A2B3"/>
<path d="M370.842 154.088V158.045" stroke="#98A2B3"/>
<path d="M355.521 154.088V158.045" stroke="#98A2B3"/>
<path d="M386.16 154.088V158.045" stroke="#98A2B3"/>
<path d="M345.31 154.088V158.045" stroke="#98A2B3"/>
<path d="M375.947 154.088V158.045" stroke="#98A2B3"/>
<path d="M360.628 154.088V158.045" stroke="#98A2B3"/>
<path d="M391.266 154.088V158.045" stroke="#98A2B3"/>
<path d="M350.416 149.143V158.045" stroke="#98A2B3"/>
<path d="M381.054 149.143V158.045" stroke="#98A2B3"/>
<path d="M365.734 137.274V158.045" stroke="#98A2B3"/>
<path d="M340.203 195.629V199.586" stroke="#98A2B3"/>
<path d="M370.842 195.629V199.586" stroke="#98A2B3"/>
<path d="M355.521 195.629V199.586" stroke="#98A2B3"/>
<path d="M386.16 195.629V199.586" stroke="#98A2B3"/>
<path d="M345.31 195.629V199.586" stroke="#98A2B3"/>
<path d="M375.947 195.629V199.586" stroke="#98A2B3"/>
<path d="M360.628 195.629V199.586" stroke="#98A2B3"/>
<path d="M391.266 195.629V199.586" stroke="#98A2B3"/>
<path d="M350.416 190.684V199.586" stroke="#98A2B3"/>
<path d="M381.054 190.684V199.586" stroke="#98A2B3"/>
<path d="M365.734 178.815V199.586" stroke="#98A2B3"/>
<path d="M398.694 70.0005V73.9568" stroke="#98A2B3"/>
<path d="M429.332 70.0005V73.9568" stroke="#98A2B3"/>
<path d="M414.013 70.0005V73.9568" stroke="#98A2B3"/>
<path d="M444.652 70.0005V73.9568" stroke="#98A2B3"/>
<path d="M403.801 70.0005V73.9568" stroke="#98A2B3"/>
<path d="M434.438 70.0005V73.9568" stroke="#98A2B3"/>
<path d="M419.12 70.0005V73.9568" stroke="#98A2B3"/>
<path d="M449.758 70.0005V73.9568" stroke="#98A2B3"/>
<path d="M408.907 65.0547V73.9564" stroke="#98A2B3"/>
<path d="M439.544 65.0547V73.9564" stroke="#98A2B3"/>
<path d="M424.226 53.186V73.9568" stroke="#98A2B3"/>
<path d="M398.694 112.547V116.503" stroke="#98A2B3"/>
<path d="M429.332 112.547V116.503" stroke="#98A2B3"/>
<path d="M414.013 112.547V116.503" stroke="#98A2B3"/>
<path d="M444.652 112.547V116.503" stroke="#98A2B3"/>
<path d="M403.801 112.547V116.503" stroke="#98A2B3"/>
<path d="M434.438 112.547V116.503" stroke="#98A2B3"/>
<path d="M419.12 112.547V116.503" stroke="#98A2B3"/>
<path d="M449.758 112.547V116.503" stroke="#98A2B3"/>
<path d="M408.907 107.601V116.504" stroke="#98A2B3"/>
<path d="M439.544 107.601V116.504" stroke="#98A2B3"/>
<path d="M424.226 95.7324V116.503" stroke="#98A2B3"/>
<path d="M398.693 154.087V158.044" stroke="#98A2B3"/>
<path d="M429.332 154.087V158.044" stroke="#98A2B3"/>
<path d="M414.013 154.087V158.044" stroke="#98A2B3"/>
<path d="M444.651 154.087V158.044" stroke="#98A2B3"/>
<path d="M403.8 154.087V158.044" stroke="#98A2B3"/>
<path d="M434.438 154.087V158.044" stroke="#98A2B3"/>
<path d="M419.12 154.087V158.044" stroke="#98A2B3"/>
<path d="M449.758 154.087V158.044" stroke="#98A2B3"/>
<path d="M408.906 149.143V158.044" stroke="#98A2B3"/>
<path d="M439.544 149.143V158.044" stroke="#98A2B3"/>
<path d="M424.226 137.273V158.044" stroke="#98A2B3"/>
<path d="M398.694 195.629V199.586" stroke="#98A2B3"/>
<path d="M429.332 195.629V199.586" stroke="#98A2B3"/>
<path d="M414.013 195.629V199.586" stroke="#98A2B3"/>
<path d="M444.652 195.629V199.586" stroke="#98A2B3"/>
<path d="M403.801 195.629V199.586" stroke="#98A2B3"/>
<path d="M434.438 195.629V199.586" stroke="#98A2B3"/>
<path d="M419.12 195.629V199.586" stroke="#98A2B3"/>
<path d="M449.758 195.629V199.586" stroke="#98A2B3"/>
<path d="M408.907 190.685V199.586" stroke="#98A2B3"/>
<path d="M439.544 190.685V199.586" stroke="#98A2B3"/>
<path d="M424.226 178.815V199.586" stroke="#98A2B3"/>
<path d="M457.186 70.0005V73.9568" stroke="#98A2B3"/>
<path d="M487.824 70.0005V73.9568" stroke="#98A2B3"/>
<path d="M472.505 70.0005V73.9568" stroke="#98A2B3"/>
<path d="M503.144 70.0005V73.9568" stroke="#98A2B3"/>
<path d="M462.293 70.0005V73.9568" stroke="#98A2B3"/>
<path d="M492.931 70.0005V73.9568" stroke="#98A2B3"/>
<path d="M477.611 70.0005V73.9568" stroke="#98A2B3"/>
<path d="M508.25 70.0005V73.9568" stroke="#98A2B3"/>
<path d="M467.399 65.0547V73.9564" stroke="#98A2B3"/>
<path d="M498.037 65.0547V73.9564" stroke="#98A2B3"/>
<path d="M482.717 53.186V73.9568" stroke="#98A2B3"/>
<path d="M457.186 112.547V116.503" stroke="#98A2B3"/>
<path d="M487.824 112.547V116.503" stroke="#98A2B3"/>
<path d="M472.505 112.547V116.503" stroke="#98A2B3"/>
<path d="M503.144 112.547V116.503" stroke="#98A2B3"/>
<path d="M462.293 112.547V116.503" stroke="#98A2B3"/>
<path d="M492.931 112.547V116.503" stroke="#98A2B3"/>
<path d="M477.611 112.547V116.503" stroke="#98A2B3"/>
<path d="M508.25 112.547V116.503" stroke="#98A2B3"/>
<path d="M467.399 107.601V116.504" stroke="#98A2B3"/>
<path d="M498.037 107.601V116.504" stroke="#98A2B3"/>
<path d="M482.717 95.7324V116.503" stroke="#98A2B3"/>
<path d="M457.186 154.087V158.044" stroke="#98A2B3"/>
<path d="M487.824 154.087V158.044" stroke="#98A2B3"/>
<path d="M472.505 154.087V158.044" stroke="#98A2B3"/>
<path d="M503.144 154.087V158.044" stroke="#98A2B3"/>
<path d="M462.293 154.087V158.044" stroke="#98A2B3"/>
<path d="M492.931 154.087V158.044" stroke="#98A2B3"/>
<path d="M477.611 154.087V158.044" stroke="#98A2B3"/>
<path d="M508.25 154.087V158.044" stroke="#98A2B3"/>
<path d="M467.399 149.142V158.044" stroke="#98A2B3"/>
<path d="M498.037 149.142V158.044" stroke="#98A2B3"/>
<path d="M482.717 137.273V158.044" stroke="#98A2B3"/>
<path d="M457.186 195.629V199.586" stroke="#98A2B3"/>
<path d="M487.824 195.629V199.586" stroke="#98A2B3"/>
<path d="M472.505 195.629V199.586" stroke="#98A2B3"/>
<path d="M503.144 195.629V199.586" stroke="#98A2B3"/>
<path d="M462.293 195.629V199.586" stroke="#98A2B3"/>
<path d="M492.931 195.629V199.586" stroke="#98A2B3"/>
<path d="M477.611 195.629V199.586" stroke="#98A2B3"/>
<path d="M508.25 195.629V199.586" stroke="#98A2B3"/>
<path d="M467.399 190.684V199.586" stroke="#98A2B3"/>
<path d="M498.037 190.684V199.586" stroke="#98A2B3"/>
<path d="M482.717 178.815V199.586" stroke="#98A2B3"/>
<path d="M515.677 70.0005V73.9568" stroke="#98A2B3"/>
<path d="M546.315 70.0005V73.9568" stroke="#98A2B3"/>
<path d="M530.995 70.0005V73.9568" stroke="#98A2B3"/>
<path d="M561.634 70.0005V73.9568" stroke="#98A2B3"/>
<path d="M520.783 70.0005V73.9568" stroke="#98A2B3"/>
<path d="M551.422 70.0005V73.9568" stroke="#98A2B3"/>
<path d="M536.103 70.0005V73.9568" stroke="#98A2B3"/>
<path d="M566.74 70.0005V73.9568" stroke="#98A2B3"/>
<path d="M525.89 65.0547V73.9564" stroke="#98A2B3"/>
<path d="M556.528 65.0547V73.9564" stroke="#98A2B3"/>
<path d="M541.209 53.186V73.9568" stroke="#98A2B3"/>
<path d="M515.677 112.547V116.504" stroke="#98A2B3"/>
<path d="M546.315 112.547V116.504" stroke="#98A2B3"/>
<path d="M530.995 112.547V116.504" stroke="#98A2B3"/>
<path d="M561.634 112.547V116.504" stroke="#98A2B3"/>
<path d="M520.783 112.547V116.504" stroke="#98A2B3"/>
<path d="M551.422 112.547V116.504" stroke="#98A2B3"/>
<path d="M536.103 112.547V116.504" stroke="#98A2B3"/>
<path d="M566.74 112.547V116.504" stroke="#98A2B3"/>
<path d="M525.89 107.601V116.504" stroke="#98A2B3"/>
<path d="M556.528 107.601V116.504" stroke="#98A2B3"/>
<path d="M541.209 95.7324V116.503" stroke="#98A2B3"/>
<path d="M515.676 154.087V158.044" stroke="#98A2B3"/>
<path d="M546.314 154.087V158.044" stroke="#98A2B3"/>
<path d="M530.994 154.087V158.044" stroke="#98A2B3"/>
<path d="M561.633 154.087V158.044" stroke="#98A2B3"/>
<path d="M520.782 154.087V158.044" stroke="#98A2B3"/>
<path d="M551.421 154.087V158.044" stroke="#98A2B3"/>
<path d="M536.102 154.087V158.044" stroke="#98A2B3"/>
<path d="M566.739 154.087V158.044" stroke="#98A2B3"/>
<path d="M525.889 149.142V158.044" stroke="#98A2B3"/>
<path d="M556.527 149.142V158.044" stroke="#98A2B3"/>
<path d="M541.208 137.273V158.044" stroke="#98A2B3"/>
<path d="M515.677 195.629V199.586" stroke="#98A2B3"/>
<path d="M546.315 195.629V199.586" stroke="#98A2B3"/>
<path d="M530.995 195.629V199.586" stroke="#98A2B3"/>
<path d="M561.634 195.629V199.586" stroke="#98A2B3"/>
<path d="M520.783 195.629V199.586" stroke="#98A2B3"/>
<path d="M551.421 195.629V199.586" stroke="#98A2B3"/>
<path d="M536.102 195.629V199.586" stroke="#98A2B3"/>
<path d="M566.739 195.629V199.586" stroke="#98A2B3"/>
<path d="M525.89 190.684V199.586" stroke="#98A2B3"/>
<path d="M556.527 190.684V199.586" stroke="#98A2B3"/>
<path d="M541.208 178.815V199.586" stroke="#98A2B3"/>
<path d="M574.168 70.0005V73.9568" stroke="#98A2B3"/>
<path d="M604.807 70.0005V73.9568" stroke="#98A2B3"/>
<path d="M589.486 70.0005V73.9568" stroke="#98A2B3"/>
<path d="M620.125 70.0005V73.9568" stroke="#98A2B3"/>
<path d="M579.273 70.0005V73.9568" stroke="#98A2B3"/>
<path d="M609.913 70.0005V73.9568" stroke="#98A2B3"/>
<path d="M594.594 70.0005V73.9568" stroke="#98A2B3"/>
<path d="M625.231 70.0005V73.9568" stroke="#98A2B3"/>
<path d="M584.38 65.0547V73.9564" stroke="#98A2B3"/>
<path d="M615.019 65.0547V73.9564" stroke="#98A2B3"/>
<path d="M599.699 53.186V73.9568" stroke="#98A2B3"/>
<path d="M574.168 112.547V116.504" stroke="#98A2B3"/>
<path d="M604.807 112.547V116.504" stroke="#98A2B3"/>
<path d="M589.486 112.547V116.504" stroke="#98A2B3"/>
<path d="M620.125 112.547V116.504" stroke="#98A2B3"/>
<path d="M579.273 112.547V116.504" stroke="#98A2B3"/>
<path d="M609.913 112.547V116.504" stroke="#98A2B3"/>
<path d="M594.594 112.547V116.504" stroke="#98A2B3"/>
<path d="M625.231 112.547V116.504" stroke="#98A2B3"/>
<path d="M584.381 107.601V116.504" stroke="#98A2B3"/>
<path d="M615.019 107.601V116.504" stroke="#98A2B3"/>
<path d="M599.699 95.7324V116.503" stroke="#98A2B3"/>
<path d="M574.168 154.087V158.044" stroke="#98A2B3"/>
<path d="M604.807 154.087V158.044" stroke="#98A2B3"/>
<path d="M589.486 154.087V158.044" stroke="#98A2B3"/>
<path d="M620.125 154.087V158.044" stroke="#98A2B3"/>
<path d="M579.273 154.087V158.044" stroke="#98A2B3"/>
<path d="M609.913 154.087V158.044" stroke="#98A2B3"/>
<path d="M594.594 154.087V158.044" stroke="#98A2B3"/>
<path d="M625.231 154.087V158.044" stroke="#98A2B3"/>
<path d="M584.38 149.142V158.044" stroke="#98A2B3"/>
<path d="M615.019 149.142V158.044" stroke="#98A2B3"/>
<path d="M599.699 137.273V158.044" stroke="#98A2B3"/>
<path d="M574.168 195.629V199.586" stroke="#98A2B3"/>
<path d="M604.807 195.629V199.586" stroke="#98A2B3"/>
<path d="M589.486 195.629V199.586" stroke="#98A2B3"/>
<path d="M620.125 195.629V199.586" stroke="#98A2B3"/>
<path d="M579.273 195.629V199.586" stroke="#98A2B3"/>
<path d="M609.913 195.629V199.586" stroke="#98A2B3"/>
<path d="M594.594 195.629V199.586" stroke="#98A2B3"/>
<path d="M625.231 195.629V199.586" stroke="#98A2B3"/>
<path d="M584.381 190.684V199.586" stroke="#98A2B3"/>
<path d="M615.019 190.684V199.586" stroke="#98A2B3"/>
<path d="M599.699 178.815V199.586" stroke="#98A2B3"/>
<path d="M632.658 70.0005V73.9568" stroke="#98A2B3"/>
<path d="M663.297 70.0005V73.9568" stroke="#98A2B3"/>
<path d="M647.978 70.0005V73.9568" stroke="#98A2B3"/>
<path d="M678.616 70.0005V73.9568" stroke="#98A2B3"/>
<path d="M637.764 70.0005V73.9568" stroke="#98A2B3"/>
<path d="M668.402 70.0005V73.9568" stroke="#98A2B3"/>
<path d="M653.084 70.0005V73.9568" stroke="#98A2B3"/>
<path d="M683.722 70.0005V73.9568" stroke="#98A2B3"/>
<path d="M642.872 65.0547V73.9564" stroke="#98A2B3"/>
<path d="M673.509 65.0547V73.9564" stroke="#98A2B3"/>
<path d="M658.189 53.186V73.9568" stroke="#98A2B3"/>
<path d="M632.658 112.547V116.503" stroke="#98A2B3"/>
<path d="M663.297 112.547V116.503" stroke="#98A2B3"/>
<path d="M647.978 112.547V116.503" stroke="#98A2B3"/>
<path d="M678.616 112.547V116.503" stroke="#98A2B3"/>
<path d="M637.764 112.547V116.503" stroke="#98A2B3"/>
<path d="M668.402 112.547V116.503" stroke="#98A2B3"/>
<path d="M653.084 112.547V116.503" stroke="#98A2B3"/>
<path d="M683.722 112.547V116.503" stroke="#98A2B3"/>
<path d="M642.872 107.601V116.504" stroke="#98A2B3"/>
<path d="M673.509 107.601V116.504" stroke="#98A2B3"/>
<path d="M658.189 95.7324V116.503" stroke="#98A2B3"/>
<path d="M632.659 154.087V158.044" stroke="#98A2B3"/>
<path d="M663.298 154.087V158.044" stroke="#98A2B3"/>
<path d="M647.979 154.087V158.044" stroke="#98A2B3"/>
<path d="M678.617 154.087V158.044" stroke="#98A2B3"/>
<path d="M637.765 154.087V158.044" stroke="#98A2B3"/>
<path d="M668.404 154.087V158.044" stroke="#98A2B3"/>
<path d="M653.085 154.087V158.044" stroke="#98A2B3"/>
<path d="M683.723 154.087V158.044" stroke="#98A2B3"/>
<path d="M642.873 149.142V158.044" stroke="#98A2B3"/>
<path d="M673.511 149.143V158.044" stroke="#98A2B3"/>
<path d="M658.191 137.273V158.044" stroke="#98A2B3"/>
<path d="M632.659 195.63V199.586" stroke="#98A2B3"/>
<path d="M663.297 195.63V199.586" stroke="#98A2B3"/>
<path d="M647.979 195.63V199.586" stroke="#98A2B3"/>
<path d="M678.617 195.63V199.586" stroke="#98A2B3"/>
<path d="M637.765 195.63V199.586" stroke="#98A2B3"/>
<path d="M668.404 195.63V199.586" stroke="#98A2B3"/>
<path d="M653.085 195.63V199.586" stroke="#98A2B3"/>
<path d="M683.723 195.63V199.586" stroke="#98A2B3"/>
<path d="M642.873 190.685V199.586" stroke="#98A2B3"/>
<path d="M673.51 190.685V199.587" stroke="#98A2B3"/>
<path d="M658.19 178.815V199.586" stroke="#98A2B3"/>
<path d="M691.15 70.0005V73.9568" stroke="#98A2B3"/>
<path d="M721.789 70.0005V73.9568" stroke="#98A2B3"/>
<path d="M706.47 70.0005V73.9568" stroke="#98A2B3"/>
<path d="M737.107 70.0005V73.9568" stroke="#98A2B3"/>
<path d="M696.257 70.0005V73.9568" stroke="#98A2B3"/>
<path d="M726.896 70.0005V73.9568" stroke="#98A2B3"/>
<path d="M711.575 70.0005V73.9568" stroke="#98A2B3"/>
<path d="M742.214 70.0005V73.9568" stroke="#98A2B3"/>
<path d="M701.363 65.0547V73.9564" stroke="#98A2B3"/>
<path d="M732.001 65.0547V73.9564" stroke="#98A2B3"/>
<path d="M716.682 53.186V73.9568" stroke="#98A2B3"/>
<path d="M691.15 112.547V116.503" stroke="#98A2B3"/>
<path d="M721.789 112.547V116.503" stroke="#98A2B3"/>
<path d="M706.47 112.547V116.503" stroke="#98A2B3"/>
<path d="M737.107 112.547V116.503" stroke="#98A2B3"/>
<path d="M696.257 112.547V116.503" stroke="#98A2B3"/>
<path d="M726.895 112.547V116.503" stroke="#98A2B3"/>
<path d="M711.575 112.547V116.503" stroke="#98A2B3"/>
<path d="M742.214 112.547V116.503" stroke="#98A2B3"/>
<path d="M701.363 107.601V116.504" stroke="#98A2B3"/>
<path d="M732.001 107.601V116.504" stroke="#98A2B3"/>
<path d="M716.682 95.7324V116.503" stroke="#98A2B3"/>
<path d="M691.15 154.088V158.045" stroke="#98A2B3"/>
<path d="M721.789 154.088V158.045" stroke="#98A2B3"/>
<path d="M706.47 154.088V158.045" stroke="#98A2B3"/>
<path d="M737.107 154.088V158.045" stroke="#98A2B3"/>
<path d="M696.258 154.088V158.045" stroke="#98A2B3"/>
<path d="M726.896 154.088V158.045" stroke="#98A2B3"/>
<path d="M711.576 154.088V158.045" stroke="#98A2B3"/>
<path d="M742.215 154.088V158.045" stroke="#98A2B3"/>
<path d="M701.363 149.143V158.045" stroke="#98A2B3"/>
<path d="M732.002 149.143V158.045" stroke="#98A2B3"/>
<path d="M716.682 137.274V158.045" stroke="#98A2B3"/>
<path d="M691.15 195.63V199.587" stroke="#98A2B3"/>
<path d="M721.789 195.63V199.587" stroke="#98A2B3"/>
<path d="M706.47 195.63V199.587" stroke="#98A2B3"/>
<path d="M737.107 195.63V199.587" stroke="#98A2B3"/>
<path d="M696.257 195.63V199.587" stroke="#98A2B3"/>
<path d="M726.895 195.63V199.587" stroke="#98A2B3"/>
<path d="M711.575 195.63V199.587" stroke="#98A2B3"/>
<path d="M742.214 195.63V199.587" stroke="#98A2B3"/>
<path d="M701.363 190.685V199.587" stroke="#98A2B3"/>
<path d="M732.001 190.685V199.587" stroke="#98A2B3"/>
<path d="M716.682 178.816V199.587" stroke="#98A2B3"/>
<path d="M749.642 70.0005V73.9568" stroke="#98A2B3"/>
<path d="M780.28 70.0005V73.9568" stroke="#98A2B3"/>
<path d="M764.96 70.0005V73.9568" stroke="#98A2B3"/>
<path d="M795.599 70.0005V73.9568" stroke="#98A2B3"/>
<path d="M754.747 70.0005V73.9568" stroke="#98A2B3"/>
<path d="M785.386 70.0005V73.9568" stroke="#98A2B3"/>
<path d="M770.067 70.0005V73.9568" stroke="#98A2B3"/>
<path d="M800.705 70.0005V73.9568" stroke="#98A2B3"/>
<path d="M759.854 65.0547V73.9564" stroke="#98A2B3"/>
<path d="M790.492 65.0547V73.9564" stroke="#98A2B3"/>
<path d="M775.173 53.186V73.9568" stroke="#98A2B3"/>
<path d="M749.642 112.547V116.503" stroke="#98A2B3"/>
<path d="M780.28 112.547V116.503" stroke="#98A2B3"/>
<path d="M764.96 112.547V116.503" stroke="#98A2B3"/>
<path d="M795.599 112.547V116.503" stroke="#98A2B3"/>
<path d="M754.747 112.547V116.503" stroke="#98A2B3"/>
<path d="M785.386 112.547V116.503" stroke="#98A2B3"/>
<path d="M770.067 112.547V116.503" stroke="#98A2B3"/>
<path d="M800.705 112.547V116.503" stroke="#98A2B3"/>
<path d="M759.854 107.601V116.503" stroke="#98A2B3"/>
<path d="M790.492 107.601V116.503" stroke="#98A2B3"/>
<path d="M775.173 95.7314V116.502" stroke="#98A2B3"/>
<path d="M749.642 154.088V158.045" stroke="#98A2B3"/>
<path d="M780.28 154.088V158.045" stroke="#98A2B3"/>
<path d="M764.96 154.088V158.045" stroke="#98A2B3"/>
<path d="M795.599 154.088V158.045" stroke="#98A2B3"/>
<path d="M754.747 154.088V158.045" stroke="#98A2B3"/>
<path d="M785.386 154.088V158.045" stroke="#98A2B3"/>
<path d="M770.067 154.088V158.045" stroke="#98A2B3"/>
<path d="M800.705 154.088V158.045" stroke="#98A2B3"/>
<path d="M759.854 149.143V158.045" stroke="#98A2B3"/>
<path d="M790.492 149.143V158.045" stroke="#98A2B3"/>
<path d="M775.173 137.274V158.045" stroke="#98A2B3"/>
<path d="M749.642 195.629V199.586" stroke="#98A2B3"/>
<path d="M780.28 195.629V199.586" stroke="#98A2B3"/>
<path d="M764.96 195.629V199.586" stroke="#98A2B3"/>
<path d="M795.599 195.629V199.586" stroke="#98A2B3"/>
<path d="M754.747 195.629V199.586" stroke="#98A2B3"/>
<path d="M785.386 195.629V199.586" stroke="#98A2B3"/>
<path d="M770.067 195.629V199.586" stroke="#98A2B3"/>
<path d="M800.705 195.629V199.586" stroke="#98A2B3"/>
<path d="M759.854 190.684V199.586" stroke="#98A2B3"/>
<path d="M790.492 190.684V199.586" stroke="#98A2B3"/>
<path d="M775.173 178.815V199.586" stroke="#98A2B3"/>
<path d="M808.132 70.0005V73.9568" stroke="#98A2B3"/>
<path d="M838.771 70.0005V73.9568" stroke="#98A2B3"/>
<path d="M823.451 70.0005V73.9568" stroke="#98A2B3"/>
<path d="M854.09 70.0005V73.9568" stroke="#98A2B3"/>
<path d="M813.238 70.0005V73.9568" stroke="#98A2B3"/>
<path d="M843.877 70.0005V73.9568" stroke="#98A2B3"/>
<path d="M828.559 70.0005V73.9568" stroke="#98A2B3"/>
<path d="M859.196 70.0005V73.9568" stroke="#98A2B3"/>
<path d="M818.346 65.0547V73.9564" stroke="#98A2B3"/>
<path d="M848.984 65.0547V73.9564" stroke="#98A2B3"/>
<path d="M833.664 53.186V73.9568" stroke="#98A2B3"/>
<path d="M808.132 112.547V116.504" stroke="#98A2B3"/>
<path d="M838.771 112.547V116.504" stroke="#98A2B3"/>
<path d="M823.451 112.547V116.504" stroke="#98A2B3"/>
<path d="M854.09 112.547V116.504" stroke="#98A2B3"/>
<path d="M813.238 112.547V116.504" stroke="#98A2B3"/>
<path d="M843.877 112.547V116.504" stroke="#98A2B3"/>
<path d="M828.559 112.547V116.504" stroke="#98A2B3"/>
<path d="M859.196 112.547V116.504" stroke="#98A2B3"/>
<path d="M818.346 107.601V116.504" stroke="#98A2B3"/>
<path d="M848.984 107.601V116.504" stroke="#98A2B3"/>
<path d="M833.664 95.7324V116.503" stroke="#98A2B3"/>
<path d="M808.132 154.087V158.044" stroke="#98A2B3"/>
<path d="M838.771 154.087V158.044" stroke="#98A2B3"/>
<path d="M823.451 154.087V158.044" stroke="#98A2B3"/>
<path d="M854.09 154.087V158.044" stroke="#98A2B3"/>
<path d="M813.238 154.087V158.044" stroke="#98A2B3"/>
<path d="M843.877 154.087V158.044" stroke="#98A2B3"/>
<path d="M828.558 154.087V158.044" stroke="#98A2B3"/>
<path d="M859.195 154.087V158.044" stroke="#98A2B3"/>
<path d="M818.346 149.142V158.044" stroke="#98A2B3"/>
<path d="M848.984 149.142V158.044" stroke="#98A2B3"/>
<path d="M833.664 137.273V158.044" stroke="#98A2B3"/>
<path d="M808.132 195.629V199.586" stroke="#98A2B3"/>
<path d="M838.771 195.629V199.586" stroke="#98A2B3"/>
<path d="M823.451 195.629V199.586" stroke="#98A2B3"/>
<path d="M854.09 195.629V199.586" stroke="#98A2B3"/>
<path d="M813.238 195.629V199.586" stroke="#98A2B3"/>
<path d="M843.877 195.629V199.586" stroke="#98A2B3"/>
<path d="M828.558 195.629V199.586" stroke="#98A2B3"/>
<path d="M859.195 195.629V199.586" stroke="#98A2B3"/>
<path d="M818.346 190.684V199.586" stroke="#98A2B3"/>
<path d="M848.984 190.684V199.586" stroke="#98A2B3"/>
<path d="M833.664 178.815V199.586" stroke="#98A2B3"/>
<path d="M866.623 70.0005V73.9568" stroke="#98A2B3"/>
<path d="M897.263 70.0005V73.9568" stroke="#98A2B3"/>
<path d="M881.942 70.0005V73.9568" stroke="#98A2B3"/>
<path d="M912.581 70.0005V73.9568" stroke="#98A2B3"/>
<path d="M871.729 70.0005V73.9568" stroke="#98A2B3"/>
<path d="M902.368 70.0005V73.9568" stroke="#98A2B3"/>
<path d="M887.049 70.0005V73.9568" stroke="#98A2B3"/>
<path d="M917.687 70.0005V73.9568" stroke="#98A2B3"/>
<path d="M876.836 65.0547V73.9564" stroke="#98A2B3"/>
<path d="M907.475 65.0547V73.9564" stroke="#98A2B3"/>
<path d="M892.154 53.186V73.9568" stroke="#98A2B3"/>
<path d="M866.623 112.547V116.503" stroke="#98A2B3"/>
<path d="M897.263 112.547V116.503" stroke="#98A2B3"/>
<path d="M881.942 112.547V116.503" stroke="#98A2B3"/>
<path d="M912.581 112.547V116.503" stroke="#98A2B3"/>
<path d="M871.729 112.547V116.503" stroke="#98A2B3"/>
<path d="M902.368 112.547V116.503" stroke="#98A2B3"/>
<path d="M887.049 112.547V116.503" stroke="#98A2B3"/>
<path d="M917.687 112.547V116.503" stroke="#98A2B3"/>
<path d="M876.837 107.601V116.504" stroke="#98A2B3"/>
<path d="M907.475 107.601V116.504" stroke="#98A2B3"/>
<path d="M892.154 95.7324V116.503" stroke="#98A2B3"/>
<path d="M866.623 154.087V158.044" stroke="#98A2B3"/>
<path d="M897.263 154.087V158.044" stroke="#98A2B3"/>
<path d="M881.943 154.087V158.044" stroke="#98A2B3"/>
<path d="M912.581 154.087V158.044" stroke="#98A2B3"/>
<path d="M871.73 154.087V158.044" stroke="#98A2B3"/>
<path d="M902.369 154.087V158.044" stroke="#98A2B3"/>
<path d="M887.05 154.087V158.044" stroke="#98A2B3"/>
<path d="M917.688 154.087V158.044" stroke="#98A2B3"/>
<path d="M876.837 149.142V158.044" stroke="#98A2B3"/>
<path d="M907.476 149.142V158.044" stroke="#98A2B3"/>
<path d="M892.156 137.273V158.044" stroke="#98A2B3"/>
<path d="M866.623 195.629V199.586" stroke="#98A2B3"/>
<path d="M897.263 195.629V199.586" stroke="#98A2B3"/>
<path d="M881.943 195.629V199.586" stroke="#98A2B3"/>
<path d="M912.581 195.629V199.586" stroke="#98A2B3"/>
<path d="M871.73 195.629V199.586" stroke="#98A2B3"/>
<path d="M902.368 195.629V199.586" stroke="#98A2B3"/>
<path d="M887.05 195.629V199.586" stroke="#98A2B3"/>
<path d="M917.688 195.629V199.586" stroke="#98A2B3"/>
<path d="M876.837 190.684V199.586" stroke="#98A2B3"/>
<path d="M907.476 190.684V199.586" stroke="#98A2B3"/>
<path d="M892.156 178.815V199.586" stroke="#98A2B3"/>
<path d="M925.115 70.0005V73.9568" stroke="#98A2B3"/>
<path d="M955.754 70.0005V73.9568" stroke="#98A2B3"/>
<path d="M940.434 70.0005V73.9568" stroke="#98A2B3"/>
<path d="M971.072 70.0005V73.9568" stroke="#98A2B3"/>
<path d="M930.222 70.0005V73.9568" stroke="#98A2B3"/>
<path d="M960.859 70.0005V73.9568" stroke="#98A2B3"/>
<path d="M945.541 70.0005V73.9568" stroke="#98A2B3"/>
<path d="M976.18 70.0005V73.9568" stroke="#98A2B3"/>
<path d="M935.327 65.0547V73.9564" stroke="#98A2B3"/>
<path d="M965.967 65.0547V73.9564" stroke="#98A2B3"/>
<path d="M950.647 53.186V73.9568" stroke="#98A2B3"/>
<path d="M925.115 112.547V116.504" stroke="#98A2B3"/>
<path d="M955.754 112.547V116.504" stroke="#98A2B3"/>
<path d="M940.434 112.547V116.504" stroke="#98A2B3"/>
<path d="M971.072 112.547V116.504" stroke="#98A2B3"/>
<path d="M930.222 112.547V116.504" stroke="#98A2B3"/>
<path d="M960.859 112.547V116.504" stroke="#98A2B3"/>
<path d="M945.541 112.547V116.504" stroke="#98A2B3"/>
<path d="M976.18 112.547V116.504" stroke="#98A2B3"/>
<path d="M935.327 107.601V116.504" stroke="#98A2B3"/>
<path d="M965.967 107.601V116.504" stroke="#98A2B3"/>
<path d="M950.647 95.7324V116.503" stroke="#98A2B3"/>
<path d="M925.114 154.087V158.044" stroke="#98A2B3"/>
<path d="M955.753 154.087V158.044" stroke="#98A2B3"/>
<path d="M940.433 154.087V158.044" stroke="#98A2B3"/>
<path d="M971.072 154.087V158.044" stroke="#98A2B3"/>
<path d="M930.22 154.087V158.044" stroke="#98A2B3"/>
<path d="M960.858 154.087V158.044" stroke="#98A2B3"/>
<path d="M945.54 154.087V158.044" stroke="#98A2B3"/>
<path d="M976.178 154.087V158.044" stroke="#98A2B3"/>
<path d="M935.327 149.142V158.044" stroke="#98A2B3"/>
<path d="M965.965 149.142V158.044" stroke="#98A2B3"/>
<path d="M950.646 137.273V158.044" stroke="#98A2B3"/>
<path d="M925.114 195.629V199.586" stroke="#98A2B3"/>
<path d="M955.753 195.629V199.586" stroke="#98A2B3"/>
<path d="M940.433 195.629V199.586" stroke="#98A2B3"/>
<path d="M971.072 195.629V199.586" stroke="#98A2B3"/>
<path d="M930.221 195.629V199.586" stroke="#98A2B3"/>
<path d="M960.858 195.629V199.586" stroke="#98A2B3"/>
<path d="M945.541 195.629V199.586" stroke="#98A2B3"/>
<path d="M976.179 195.629V199.586" stroke="#98A2B3"/>
<path d="M935.327 190.684V199.586" stroke="#98A2B3"/>
<path d="M965.966 190.684V199.586" stroke="#98A2B3"/>
<path d="M950.646 178.815V199.586" stroke="#98A2B3"/>
<path d="M983.605 70.0005V73.9568" stroke="#98A2B3"/>
<path d="M1014.25 70.0005V73.9568" stroke="#98A2B3"/>
<path d="M998.925 70.0005V73.9568" stroke="#98A2B3"/>
<path d="M1029.57 70.0005V73.9568" stroke="#98A2B3"/>
<path d="M988.712 70.0005V73.9568" stroke="#98A2B3"/>
<path d="M1019.36 70.0005V73.9568" stroke="#98A2B3"/>
<path d="M1004.03 70.0005V73.9568" stroke="#98A2B3"/>
<path d="M1034.67 70.0005V73.9568" stroke="#98A2B3"/>
<path d="M993.818 65.0547V73.9564" stroke="#98A2B3"/>
<path d="M1024.46 65.0547V73.9564" stroke="#98A2B3"/>
<path d="M1009.14 53.186V73.9568" stroke="#98A2B3"/>
<path d="M983.605 112.547V116.504" stroke="#98A2B3"/>
<path d="M1014.25 112.547V116.504" stroke="#98A2B3"/>
<path d="M998.925 112.547V116.504" stroke="#98A2B3"/>
<path d="M1029.57 112.547V116.504" stroke="#98A2B3"/>
<path d="M988.712 112.547V116.504" stroke="#98A2B3"/>
<path d="M1019.36 112.547V116.504" stroke="#98A2B3"/>
<path d="M1004.03 112.547V116.504" stroke="#98A2B3"/>
<path d="M1034.67 112.547V116.504" stroke="#98A2B3"/>
<path d="M993.818 107.601V116.504" stroke="#98A2B3"/>
<path d="M1024.46 107.601V116.504" stroke="#98A2B3"/>
<path d="M1009.14 95.7324V116.503" stroke="#98A2B3"/>
<path d="M983.605 154.087V158.044" stroke="#98A2B3"/>
<path d="M1014.25 154.087V158.044" stroke="#98A2B3"/>
<path d="M998.925 154.087V158.044" stroke="#98A2B3"/>
<path d="M1029.57 154.087V158.044" stroke="#98A2B3"/>
<path d="M988.712 154.087V158.044" stroke="#98A2B3"/>
<path d="M1019.36 154.087V158.044" stroke="#98A2B3"/>
<path d="M1004.03 154.087V158.044" stroke="#98A2B3"/>
<path d="M1034.67 154.087V158.044" stroke="#98A2B3"/>
<path d="M993.818 149.142V158.044" stroke="#98A2B3"/>
<path d="M1024.46 149.142V158.044" stroke="#98A2B3"/>
<path d="M1009.14 137.273V158.044" stroke="#98A2B3"/>
<path d="M983.605 195.629V199.586" stroke="#98A2B3"/>
<path d="M1014.25 195.629V199.586" stroke="#98A2B3"/>
<path d="M998.925 195.629V199.586" stroke="#98A2B3"/>
<path d="M1029.57 195.629V199.586" stroke="#98A2B3"/>
<path d="M988.712 195.629V199.586" stroke="#98A2B3"/>
<path d="M1019.36 195.629V199.586" stroke="#98A2B3"/>
<path d="M1004.03 195.629V199.586" stroke="#98A2B3"/>
<path d="M1034.67 195.629V199.586" stroke="#98A2B3"/>
<path d="M993.818 190.684V199.586" stroke="#98A2B3"/>
<path d="M1024.46 190.684V199.586" stroke="#98A2B3"/>
<path d="M1009.14 178.815V199.586" stroke="#98A2B3"/>
<path d="M1042.1 70.0005V73.9568" stroke="#98A2B3"/>
<path d="M1072.74 70.0005V73.9568" stroke="#98A2B3"/>
<path d="M1057.42 70.0005V73.9568" stroke="#98A2B3"/>
<path d="M1088.06 70.0005V73.9568" stroke="#98A2B3"/>
<path d="M1047.21 70.0005V73.9568" stroke="#98A2B3"/>
<path d="M1077.85 70.0005V73.9568" stroke="#98A2B3"/>
<path d="M1062.53 70.0005V73.9568" stroke="#98A2B3"/>
<path d="M1093.16 70.0005V73.9568" stroke="#98A2B3"/>
<path d="M1052.31 65.0547V73.9564" stroke="#98A2B3"/>
<path d="M1082.95 65.0547V73.9564" stroke="#98A2B3"/>
<path d="M1067.63 53.186V73.9568" stroke="#98A2B3"/>
<path d="M1042.1 112.547V116.503" stroke="#98A2B3"/>
<path d="M1072.74 112.547V116.503" stroke="#98A2B3"/>
<path d="M1057.42 112.547V116.503" stroke="#98A2B3"/>
<path d="M1088.06 112.547V116.503" stroke="#98A2B3"/>
<path d="M1047.21 112.547V116.503" stroke="#98A2B3"/>
<path d="M1077.85 112.547V116.503" stroke="#98A2B3"/>
<path d="M1062.53 112.547V116.503" stroke="#98A2B3"/>
<path d="M1093.16 112.547V116.503" stroke="#98A2B3"/>
<path d="M1052.31 107.601V116.504" stroke="#98A2B3"/>
<path d="M1082.95 107.601V116.504" stroke="#98A2B3"/>
<path d="M1067.63 95.7324V116.503" stroke="#98A2B3"/>
<path d="M1042.1 154.087V158.044" stroke="#98A2B3"/>
<path d="M1072.74 154.087V158.044" stroke="#98A2B3"/>
<path d="M1057.42 154.087V158.044" stroke="#98A2B3"/>
<path d="M1088.06 154.087V158.044" stroke="#98A2B3"/>
<path d="M1047.21 154.087V158.044" stroke="#98A2B3"/>
<path d="M1077.85 154.087V158.044" stroke="#98A2B3"/>
<path d="M1062.53 154.087V158.044" stroke="#98A2B3"/>
<path d="M1093.17 154.087V158.044" stroke="#98A2B3"/>
<path d="M1052.31 149.142V158.044" stroke="#98A2B3"/>
<path d="M1082.95 149.142V158.044" stroke="#98A2B3"/>
<path d="M1067.63 137.273V158.044" stroke="#98A2B3"/>
<path d="M1042.1 195.629V199.586" stroke="#98A2B3"/>
<path d="M1072.74 195.629V199.586" stroke="#98A2B3"/>
<path d="M1057.42 195.629V199.586" stroke="#98A2B3"/>
<path d="M1088.06 195.629V199.586" stroke="#98A2B3"/>
<path d="M1047.21 195.629V199.586" stroke="#98A2B3"/>
<path d="M1077.85 195.629V199.586" stroke="#98A2B3"/>
<path d="M1062.53 195.629V199.586" stroke="#98A2B3"/>
<path d="M1093.16 195.629V199.586" stroke="#98A2B3"/>
<path d="M1052.31 190.684V199.586" stroke="#98A2B3"/>
<path d="M1082.95 190.684V199.586" stroke="#98A2B3"/>
<path d="M1067.63 178.815V199.586" stroke="#98A2B3"/>
<path d="M1100.59 70.0005V73.9568" stroke="#98A2B3"/>
<path d="M1131.23 70.0005V73.9568" stroke="#98A2B3"/>
<path d="M1115.92 70.0005V73.9568" stroke="#98A2B3"/>
<path d="M1146.55 70.0005V73.9568" stroke="#98A2B3"/>
<path d="M1105.7 70.0005V73.9568" stroke="#98A2B3"/>
<path d="M1136.34 70.0005V73.9568" stroke="#98A2B3"/>
<path d="M1121.02 70.0005V73.9568" stroke="#98A2B3"/>
<path d="M1151.66 70.0005V73.9568" stroke="#98A2B3"/>
<path d="M1110.8 65.0547V73.9564" stroke="#98A2B3"/>
<path d="M1141.44 65.0547V73.9564" stroke="#98A2B3"/>
<path d="M1126.12 53.186V73.9568" stroke="#98A2B3"/>
<path d="M1100.59 112.547V116.503" stroke="#98A2B3"/>
<path d="M1131.23 112.547V116.503" stroke="#98A2B3"/>
<path d="M1115.92 112.547V116.503" stroke="#98A2B3"/>
<path d="M1146.55 112.547V116.503" stroke="#98A2B3"/>
<path d="M1105.7 112.547V116.503" stroke="#98A2B3"/>
<path d="M1136.34 112.547V116.503" stroke="#98A2B3"/>
<path d="M1121.02 112.547V116.503" stroke="#98A2B3"/>
<path d="M1151.66 112.547V116.503" stroke="#98A2B3"/>
<path d="M1110.8 107.601V116.504" stroke="#98A2B3"/>
<path d="M1141.44 107.601V116.504" stroke="#98A2B3"/>
<path d="M1126.12 95.7324V116.503" stroke="#98A2B3"/>
<path d="M1100.59 154.087V158.044" stroke="#98A2B3"/>
<path d="M1131.23 154.087V158.044" stroke="#98A2B3"/>
<path d="M1115.92 154.087V158.044" stroke="#98A2B3"/>
<path d="M1146.55 154.087V158.044" stroke="#98A2B3"/>
<path d="M1105.7 154.087V158.044" stroke="#98A2B3"/>
<path d="M1136.34 154.087V158.044" stroke="#98A2B3"/>
<path d="M1121.02 154.087V158.044" stroke="#98A2B3"/>
<path d="M1151.66 154.087V158.044" stroke="#98A2B3"/>
<path d="M1110.8 149.142V158.044" stroke="#98A2B3"/>
<path d="M1141.44 149.142V158.044" stroke="#98A2B3"/>
<path d="M1126.12 137.273V158.044" stroke="#98A2B3"/>
<path d="M1100.59 195.629V199.586" stroke="#98A2B3"/>
<path d="M1131.23 195.629V199.586" stroke="#98A2B3"/>
<path d="M1115.92 195.629V199.586" stroke="#98A2B3"/>
<path d="M1146.55 195.629V199.586" stroke="#98A2B3"/>
<path d="M1105.7 195.629V199.586" stroke="#98A2B3"/>
<path d="M1136.34 195.629V199.586" stroke="#98A2B3"/>
<path d="M1121.02 195.629V199.586" stroke="#98A2B3"/>
<path d="M1151.66 195.629V199.586" stroke="#98A2B3"/>
<path d="M1110.8 190.684V199.586" stroke="#98A2B3"/>
<path d="M1141.44 190.684V199.586" stroke="#98A2B3"/>
<path d="M1126.12 178.815V199.586" stroke="#98A2B3"/>
<path d="M1159.08 70.0005V73.9568" stroke="#98A2B3"/>
<path d="M1189.73 70.0005V73.9568" stroke="#98A2B3"/>
<path d="M1174.41 70.0005V73.9568" stroke="#98A2B3"/>
<path d="M1205.04 70.0005V73.9568" stroke="#98A2B3"/>
<path d="M1164.19 70.0005V73.9568" stroke="#98A2B3"/>
<path d="M1194.83 70.0005V73.9568" stroke="#98A2B3"/>
<path d="M1179.51 70.0005V73.9568" stroke="#98A2B3"/>
<path d="M1210.15 70.0005V73.9568" stroke="#98A2B3"/>
<path d="M1169.29 65.0547V73.9564" stroke="#98A2B3"/>
<path d="M1199.93 65.0547V73.9564" stroke="#98A2B3"/>
<path d="M1184.61 53.186V73.9568" stroke="#98A2B3"/>
<path d="M1159.08 112.547V116.504" stroke="#98A2B3"/>
<path d="M1189.73 112.547V116.504" stroke="#98A2B3"/>
<path d="M1174.41 112.547V116.504" stroke="#98A2B3"/>
<path d="M1205.04 112.547V116.504" stroke="#98A2B3"/>
<path d="M1164.19 112.547V116.504" stroke="#98A2B3"/>
<path d="M1194.83 112.547V116.504" stroke="#98A2B3"/>
<path d="M1179.51 112.547V116.504" stroke="#98A2B3"/>
<path d="M1210.15 112.547V116.504" stroke="#98A2B3"/>
<path d="M1169.29 107.601V116.504" stroke="#98A2B3"/>
<path d="M1199.93 107.601V116.504" stroke="#98A2B3"/>
<path d="M1184.61 95.7324V116.503" stroke="#98A2B3"/>
<path d="M1159.08 154.087V158.044" stroke="#98A2B3"/>
<path d="M1189.73 154.087V158.044" stroke="#98A2B3"/>
<path d="M1174.41 154.087V158.044" stroke="#98A2B3"/>
<path d="M1205.04 154.087V158.044" stroke="#98A2B3"/>
<path d="M1164.19 154.087V158.044" stroke="#98A2B3"/>
<path d="M1194.83 154.087V158.044" stroke="#98A2B3"/>
<path d="M1179.51 154.087V158.044" stroke="#98A2B3"/>
<path d="M1210.15 154.087V158.044" stroke="#98A2B3"/>
<path d="M1169.29 149.142V158.044" stroke="#98A2B3"/>
<path d="M1199.93 149.142V158.044" stroke="#98A2B3"/>
<path d="M1184.61 137.273V158.044" stroke="#98A2B3"/>
<path d="M1159.08 195.629V199.586" stroke="#98A2B3"/>
<path d="M1189.73 195.629V199.586" stroke="#98A2B3"/>
<path d="M1174.41 195.629V199.586" stroke="#98A2B3"/>
<path d="M1205.04 195.629V199.586" stroke="#98A2B3"/>
<path d="M1164.19 195.629V199.586" stroke="#98A2B3"/>
<path d="M1194.83 195.629V199.586" stroke="#98A2B3"/>
<path d="M1179.51 195.629V199.586" stroke="#98A2B3"/>
<path d="M1210.15 195.629V199.586" stroke="#98A2B3"/>
<path d="M1169.29 190.684V199.586" stroke="#98A2B3"/>
<path d="M1199.93 190.684V199.586" stroke="#98A2B3"/>
<path d="M1184.61 178.815V199.586" stroke="#98A2B3"/>
<path d="M1217.58 70.0005V73.9568" stroke="#98A2B3"/>
<path d="M1248.22 70.0005V73.9568" stroke="#98A2B3"/>
<path d="M1232.9 70.0005V73.9568" stroke="#98A2B3"/>
<path d="M1263.53 70.0005V73.9568" stroke="#98A2B3"/>
<path d="M1222.68 70.0005V73.9568" stroke="#98A2B3"/>
<path d="M1253.32 70.0005V73.9568" stroke="#98A2B3"/>
<path d="M1238 70.0005V73.9568" stroke="#98A2B3"/>
<path d="M1268.64 70.0005V73.9568" stroke="#98A2B3"/>
<path d="M1227.78 65.0547V73.9564" stroke="#98A2B3"/>
<path d="M1258.42 65.0547V73.9564" stroke="#98A2B3"/>
<path d="M1243.1 53.186V73.9568" stroke="#98A2B3"/>
<path d="M1217.58 112.547V116.504" stroke="#98A2B3"/>
<path d="M1248.22 112.547V116.504" stroke="#98A2B3"/>
<path d="M1232.9 112.547V116.504" stroke="#98A2B3"/>
<path d="M1263.53 112.547V116.504" stroke="#98A2B3"/>
<path d="M1222.68 112.547V116.504" stroke="#98A2B3"/>
<path d="M1253.32 112.547V116.504" stroke="#98A2B3"/>
<path d="M1238 112.547V116.504" stroke="#98A2B3"/>
<path d="M1268.64 112.547V116.504" stroke="#98A2B3"/>
<path d="M1227.78 107.601V116.504" stroke="#98A2B3"/>
<path d="M1258.42 107.601V116.504" stroke="#98A2B3"/>
<path d="M1243.1 95.7324V116.503" stroke="#98A2B3"/>
<path d="M1217.58 154.087V158.044" stroke="#98A2B3"/>
<path d="M1248.22 154.087V158.044" stroke="#98A2B3"/>
<path d="M1232.9 154.087V158.044" stroke="#98A2B3"/>
<path d="M1263.54 154.087V158.044" stroke="#98A2B3"/>
<path d="M1222.68 154.087V158.044" stroke="#98A2B3"/>
<path d="M1253.32 154.087V158.044" stroke="#98A2B3"/>
<path d="M1238 154.087V158.044" stroke="#98A2B3"/>
<path d="M1268.64 154.087V158.044" stroke="#98A2B3"/>
<path d="M1227.79 149.142V158.044" stroke="#98A2B3"/>
<path d="M1258.42 149.142V158.044" stroke="#98A2B3"/>
<path d="M1243.1 137.273V158.044" stroke="#98A2B3"/>
<path d="M1217.58 195.629V199.586" stroke="#98A2B3"/>
<path d="M1248.22 195.629V199.586" stroke="#98A2B3"/>
<path d="M1232.9 195.629V199.586" stroke="#98A2B3"/>
<path d="M1263.53 195.629V199.586" stroke="#98A2B3"/>
<path d="M1222.68 195.629V199.586" stroke="#98A2B3"/>
<path d="M1253.32 195.629V199.586" stroke="#98A2B3"/>
<path d="M1238 195.629V199.586" stroke="#98A2B3"/>
<path d="M1268.64 195.629V199.586" stroke="#98A2B3"/>
<path d="M1227.78 190.684V199.586" stroke="#98A2B3"/>
<path d="M1258.42 190.684V199.586" stroke="#98A2B3"/>
<path d="M1243.1 178.815V199.586" stroke="#98A2B3"/>
<path d="M1276.07 70.0005V73.9568" stroke="#98A2B3"/>
<path d="M1306.71 70.0005V73.9568" stroke="#98A2B3"/>
<path d="M1291.39 70.0005V73.9568" stroke="#98A2B3"/>
<path d="M1322.02 70.0005V73.9568" stroke="#98A2B3"/>
<path d="M1281.17 70.0005V73.9568" stroke="#98A2B3"/>
<path d="M1311.81 70.0005V73.9568" stroke="#98A2B3"/>
<path d="M1296.49 70.0005V73.9568" stroke="#98A2B3"/>
<path d="M1327.13 70.0005V73.9568" stroke="#98A2B3"/>
<path d="M1286.28 65.0547V73.9564" stroke="#98A2B3"/>
<path d="M1316.92 65.0547V73.9564" stroke="#98A2B3"/>
<path d="M1301.59 53.186V73.9568" stroke="#98A2B3"/>
<path d="M1276.07 112.547V116.503" stroke="#98A2B3"/>
<path d="M1306.71 112.547V116.503" stroke="#98A2B3"/>
<path d="M1291.39 112.547V116.503" stroke="#98A2B3"/>
<path d="M1322.02 112.547V116.503" stroke="#98A2B3"/>
<path d="M1281.17 112.547V116.503" stroke="#98A2B3"/>
<path d="M1311.81 112.547V116.503" stroke="#98A2B3"/>
<path d="M1296.49 112.547V116.503" stroke="#98A2B3"/>
<path d="M1327.13 112.547V116.503" stroke="#98A2B3"/>
<path d="M1286.28 107.601V116.504" stroke="#98A2B3"/>
<path d="M1316.92 107.601V116.504" stroke="#98A2B3"/>
<path d="M1301.59 95.7324V116.503" stroke="#98A2B3"/>
<path d="M1276.07 154.087V158.044" stroke="#98A2B3"/>
<path d="M1306.71 154.087V158.044" stroke="#98A2B3"/>
<path d="M1291.39 154.087V158.044" stroke="#98A2B3"/>
<path d="M1322.02 154.087V158.044" stroke="#98A2B3"/>
<path d="M1281.17 154.087V158.044" stroke="#98A2B3"/>
<path d="M1311.81 154.087V158.044" stroke="#98A2B3"/>
<path d="M1296.49 154.087V158.044" stroke="#98A2B3"/>
<path d="M1327.13 154.087V158.044" stroke="#98A2B3"/>
<path d="M1286.28 149.142V158.044" stroke="#98A2B3"/>
<path d="M1316.92 149.142V158.044" stroke="#98A2B3"/>
<path d="M1301.59 137.273V158.044" stroke="#98A2B3"/>
<path d="M1276.07 195.629V199.586" stroke="#98A2B3"/>
<path d="M1306.71 195.629V199.586" stroke="#98A2B3"/>
<path d="M1291.39 195.629V199.586" stroke="#98A2B3"/>
<path d="M1322.02 195.629V199.586" stroke="#98A2B3"/>
<path d="M1281.17 195.629V199.586" stroke="#98A2B3"/>
<path d="M1311.81 195.629V199.586" stroke="#98A2B3"/>
<path d="M1296.49 195.629V199.586" stroke="#98A2B3"/>
<path d="M1327.13 195.629V199.586" stroke="#98A2B3"/>
<path d="M1286.28 190.684V199.586" stroke="#98A2B3"/>
<path d="M1316.92 190.684V199.586" stroke="#98A2B3"/>
<path d="M1301.59 178.815V199.586" stroke="#98A2B3"/>
<path d="M1334.56 70.0005V73.9568" stroke="#98A2B3"/>
<path d="M1365.2 70.0005V73.9568" stroke="#98A2B3"/>
<path d="M1349.88 70.0005V73.9568" stroke="#98A2B3"/>
<path d="M1380.52 70.0005V73.9568" stroke="#98A2B3"/>
<path d="M1339.66 70.0005V73.9568" stroke="#98A2B3"/>
<path d="M1370.3 70.0005V73.9568" stroke="#98A2B3"/>
<path d="M1354.98 70.0005V73.9568" stroke="#98A2B3"/>
<path d="M1385.62 70.0005V73.9568" stroke="#98A2B3"/>
<path d="M1344.77 65.0547V73.9564" stroke="#98A2B3"/>
<path d="M1375.41 65.0547V73.9564" stroke="#98A2B3"/>
<path d="M1360.08 53.186V73.9568" stroke="#98A2B3"/>
<path d="M1334.56 112.547V116.504" stroke="#98A2B3"/>
<path d="M1365.2 112.547V116.504" stroke="#98A2B3"/>
<path d="M1349.88 112.547V116.504" stroke="#98A2B3"/>
<path d="M1380.52 112.547V116.504" stroke="#98A2B3"/>
<path d="M1339.66 112.547V116.504" stroke="#98A2B3"/>
<path d="M1370.3 112.547V116.504" stroke="#98A2B3"/>
<path d="M1354.98 112.547V116.504" stroke="#98A2B3"/>
<path d="M1385.62 112.547V116.504" stroke="#98A2B3"/>
<path d="M1344.77 107.601V116.504" stroke="#98A2B3"/>
<path d="M1375.41 107.601V116.504" stroke="#98A2B3"/>
<path d="M1360.08 95.7324V116.503" stroke="#98A2B3"/>
<path d="M1334.56 154.087V158.044" stroke="#98A2B3"/>
<path d="M1365.2 154.087V158.044" stroke="#98A2B3"/>
<path d="M1349.88 154.087V158.044" stroke="#98A2B3"/>
<path d="M1380.52 154.087V158.044" stroke="#98A2B3"/>
<path d="M1339.66 154.087V158.044" stroke="#98A2B3"/>
<path d="M1370.3 154.087V158.044" stroke="#98A2B3"/>
<path d="M1354.98 154.087V158.044" stroke="#98A2B3"/>
<path d="M1385.62 154.087V158.044" stroke="#98A2B3"/>
<path d="M1344.77 149.142V158.044" stroke="#98A2B3"/>
<path d="M1375.41 149.142V158.044" stroke="#98A2B3"/>
<path d="M1360.08 137.273V158.044" stroke="#98A2B3"/>
<path d="M1334.56 195.629V199.586" stroke="#98A2B3"/>
<path d="M1365.2 195.629V199.586" stroke="#98A2B3"/>
<path d="M1349.88 195.629V199.586" stroke="#98A2B3"/>
<path d="M1380.52 195.629V199.586" stroke="#98A2B3"/>
<path d="M1339.66 195.629V199.586" stroke="#98A2B3"/>
<path d="M1370.3 195.629V199.586" stroke="#98A2B3"/>
<path d="M1354.98 195.629V199.586" stroke="#98A2B3"/>
<path d="M1385.62 195.629V199.586" stroke="#98A2B3"/>
<path d="M1344.77 190.684V199.586" stroke="#98A2B3"/>
<path d="M1375.41 190.684V199.586" stroke="#98A2B3"/>
<path d="M1360.08 178.815V199.586" stroke="#98A2B3"/>
<path d="M1393.05 70.0005V73.9568" stroke="#98A2B3"/>
<path d="M1423.69 70.0005V73.9568" stroke="#98A2B3"/>
<path d="M1408.37 70.0005V73.9568" stroke="#98A2B3"/>
<path d="M1439.01 70.0005V73.9568" stroke="#98A2B3"/>
<path d="M1398.15 70.0005V73.9568" stroke="#98A2B3"/>
<path d="M1428.79 70.0005V73.9568" stroke="#98A2B3"/>
<path d="M1413.47 70.0005V73.9568" stroke="#98A2B3"/>
<path d="M1444.11 70.0005V73.9568" stroke="#98A2B3"/>
<path d="M1403.26 65.0547V73.9564" stroke="#98A2B3"/>
<path d="M1433.9 65.0547V73.9564" stroke="#98A2B3"/>
<path d="M1418.58 53.186V73.9568" stroke="#98A2B3"/>
<path d="M1393.05 112.547V116.504" stroke="#98A2B3"/>
<path d="M1423.69 112.547V116.504" stroke="#98A2B3"/>
<path d="M1408.37 112.547V116.504" stroke="#98A2B3"/>
<path d="M1439.01 112.547V116.504" stroke="#98A2B3"/>
<path d="M1398.15 112.547V116.504" stroke="#98A2B3"/>
<path d="M1428.79 112.547V116.504" stroke="#98A2B3"/>
<path d="M1413.47 112.547V116.504" stroke="#98A2B3"/>
<path d="M1444.11 112.547V116.504" stroke="#98A2B3"/>
<path d="M1403.26 107.601V116.504" stroke="#98A2B3"/>
<path d="M1433.9 107.601V116.504" stroke="#98A2B3"/>
<path d="M1418.58 95.7324V116.503" stroke="#98A2B3"/>
<path d="M1393.05 154.087V158.044" stroke="#98A2B3"/>
<path d="M1423.69 154.087V158.044" stroke="#98A2B3"/>
<path d="M1408.37 154.087V158.044" stroke="#98A2B3"/>
<path d="M1439.01 154.087V158.044" stroke="#98A2B3"/>
<path d="M1398.16 154.087V158.044" stroke="#98A2B3"/>
<path d="M1428.79 154.087V158.044" stroke="#98A2B3"/>
<path d="M1413.47 154.087V158.044" stroke="#98A2B3"/>
<path d="M1444.11 154.087V158.044" stroke="#98A2B3"/>
<path d="M1403.26 149.142V158.044" stroke="#98A2B3"/>
<path d="M1433.9 149.142V158.044" stroke="#98A2B3"/>
<path d="M1418.58 137.273V158.044" stroke="#98A2B3"/>
<path d="M1393.05 195.629V199.586" stroke="#98A2B3"/>
<path d="M1423.69 195.629V199.586" stroke="#98A2B3"/>
<path d="M1408.37 195.629V199.586" stroke="#98A2B3"/>
<path d="M1439.01 195.629V199.586" stroke="#98A2B3"/>
<path d="M1398.16 195.629V199.586" stroke="#98A2B3"/>
<path d="M1428.79 195.629V199.586" stroke="#98A2B3"/>
<path d="M1413.47 195.629V199.586" stroke="#98A2B3"/>
<path d="M1444.11 195.629V199.586" stroke="#98A2B3"/>
<path d="M1403.26 190.684V199.586" stroke="#98A2B3"/>
<path d="M1433.9 190.684V199.586" stroke="#98A2B3"/>
<path d="M1418.58 178.815V199.586" stroke="#98A2B3"/>
<path d="M1451.54 70.0005V73.9568" stroke="#98A2B3"/>
<path d="M1482.18 70.0005V73.9568" stroke="#98A2B3"/>
<path d="M1466.86 70.0005V73.9568" stroke="#98A2B3"/>
<path d="M1497.5 70.0005V73.9568" stroke="#98A2B3"/>
<path d="M1456.65 70.0005V73.9568" stroke="#98A2B3"/>
<path d="M1487.28 70.0005V73.9568" stroke="#98A2B3"/>
<path d="M1471.96 70.0005V73.9568" stroke="#98A2B3"/>
<path d="M1502.6 70.0005V73.9568" stroke="#98A2B3"/>
<path d="M1461.75 65.0547V73.9564" stroke="#98A2B3"/>
<path d="M1492.39 65.0547V73.9564" stroke="#98A2B3"/>
<path d="M1477.08 53.186V73.9568" stroke="#98A2B3"/>
<path d="M1451.54 112.547V116.504" stroke="#98A2B3"/>
<path d="M1482.18 112.547V116.504" stroke="#98A2B3"/>
<path d="M1466.86 112.547V116.504" stroke="#98A2B3"/>
<path d="M1497.5 112.547V116.504" stroke="#98A2B3"/>
<path d="M1456.65 112.547V116.504" stroke="#98A2B3"/>
<path d="M1487.28 112.547V116.504" stroke="#98A2B3"/>
<path d="M1471.96 112.547V116.504" stroke="#98A2B3"/>
<path d="M1502.6 112.547V116.504" stroke="#98A2B3"/>
<path d="M1461.75 107.601V116.504" stroke="#98A2B3"/>
<path d="M1492.39 107.601V116.504" stroke="#98A2B3"/>
<path d="M1477.08 95.7324V116.503" stroke="#98A2B3"/>
<path d="M1451.54 154.087V158.044" stroke="#98A2B3"/>
<path d="M1482.18 154.087V158.044" stroke="#98A2B3"/>
<path d="M1466.86 154.087V158.044" stroke="#98A2B3"/>
<path d="M1497.5 154.087V158.044" stroke="#98A2B3"/>
<path d="M1456.64 154.087V158.044" stroke="#98A2B3"/>
<path d="M1487.28 154.087V158.044" stroke="#98A2B3"/>
<path d="M1471.96 154.087V158.044" stroke="#98A2B3"/>
<path d="M1502.6 154.087V158.044" stroke="#98A2B3"/>
<path d="M1461.75 149.142V158.044" stroke="#98A2B3"/>
<path d="M1492.39 149.142V158.044" stroke="#98A2B3"/>
<path d="M1477.07 137.273V158.044" stroke="#98A2B3"/>
<path d="M1451.54 195.629V199.586" stroke="#98A2B3"/>
<path d="M1482.18 195.629V199.586" stroke="#98A2B3"/>
<path d="M1466.86 195.629V199.586" stroke="#98A2B3"/>
<path d="M1497.5 195.629V199.586" stroke="#98A2B3"/>
<path d="M1456.64 195.629V199.586" stroke="#98A2B3"/>
<path d="M1487.28 195.629V199.586" stroke="#98A2B3"/>
<path d="M1471.96 195.629V199.586" stroke="#98A2B3"/>
<path d="M1502.6 195.629V199.586" stroke="#98A2B3"/>
<path d="M1461.75 190.684V199.586" stroke="#98A2B3"/>
<path d="M1492.39 190.684V199.586" stroke="#98A2B3"/>
<path d="M1477.07 178.815V199.586" stroke="#98A2B3"/>
<path d="M218.506 23.1157V198.995" stroke="#98A2B3"/>
<path d="M277.998 23.1157V198.995" stroke="#98A2B3"/>
<path d="M336.486 23.1157V198.995" stroke="#98A2B3"/>
<path d="M394.978 23.1157V198.995" stroke="#98A2B3"/>
<path d="M453.468 23.1157V198.995" stroke="#98A2B3"/>
<path d="M511.962 23.1157V198.995" stroke="#98A2B3"/>
<path d="M570.454 23.1157V198.995" stroke="#98A2B3"/>
<path d="M628.945 23.1157V198.995" stroke="#98A2B3"/>
<path d="M687.43 23.1157V198.995" stroke="#98A2B3"/>
<path d="M745.929 23.1157V198.995" stroke="#98A2B3"/>
<path d="M804.419 23.1157V198.995" stroke="#98A2B3"/>
<path d="M862.902 23.1157V198.995" stroke="#98A2B3"/>
<path d="M921.4 23.1157V198.995" stroke="#98A2B3"/>
<path d="M979.893 23.1157V198.995" stroke="#98A2B3"/>
<path d="M1038.39 23.1157V198.995" stroke="#98A2B3"/>
<path d="M1096.87 23.1157V198.995" stroke="#98A2B3"/>
<path d="M1155.36 23.1157V198.995" stroke="#98A2B3"/>
<path d="M1213.86 23.1157V198.995" stroke="#98A2B3"/>
<path d="M1272.35 23.1157V198.995" stroke="#98A2B3"/>
<path d="M1330.84 23.1157V198.995" stroke="#98A2B3"/>
<path d="M1389.32 23.1157V198.995" stroke="#98A2B3"/>
<path d="M1447.81 23.1157V198.995" stroke="#98A2B3"/>
<path d="M1506.75 32.9985V200" stroke="#98A2B3"/>
<path d="M1506.77 32.8315H40" stroke="#98A2B3"/>
<path d="M1506.77 73.8691L41 74" stroke="#98A2B3"/>
<path d="M1506.77 116.081L41 116" stroke="#98A2B3"/>
<path d="M1506.77 199.55H40" stroke="#98A2B3"/>
<path d="M1506.77 157.958L41 158" stroke="#98A2B3"/>
<path d="M45.3585 11.0552H43.2V3.54567L40.3623 11.0552H39.4264L36.5887 3.54567V11.0552H34.4453V0.32959H37.4491L39.8944 6.80999L42.3397 0.32959H45.3585V11.0552Z" fill="#667085"/>
<path d="M99.9771 11.0552H97.8337V3.2723L96.1582 5.08939L94.9355 3.72255L98.1054 0.32959H99.9771V11.0552Z" fill="#667085"/>
<path d="M159.982 11.0557H157.839V3.27279L156.163 5.08988L154.94 3.72304L158.11 0.330078H159.982V11.0557Z" fill="#667085"/>
<path d="M222.604 11.0554H215.026V9.27045C217.18 7.56593 218.604 6.35454 219.298 5.63628C220.003 4.90731 220.355 4.22656 220.355 3.59407C220.355 3.15454 220.193 2.81149 219.871 2.56493C219.55 2.31836 219.167 2.19508 218.724 2.19508C217.668 2.19508 216.767 2.60781 216.022 3.43327L214.8 1.92171C215.272 1.34282 215.852 0.908644 216.536 0.619197C217.23 0.319026 217.944 0.168945 218.679 0.168945C219.786 0.168945 220.702 0.47983 221.426 1.10161C222.161 1.72339 222.528 2.5542 222.528 3.59407C222.528 4.47314 222.201 5.33611 221.547 6.18302C220.903 7.0192 219.887 7.97327 218.498 9.04533H222.604V11.0554Z" fill="#667085"/>
<path d="M277.079 11.2484C276.193 11.2484 275.408 11.0929 274.724 10.782C274.041 10.4604 273.502 10.0423 273.109 9.52774L274.226 8.0001C274.569 8.37528 274.991 8.67548 275.494 8.90061C275.997 9.11498 276.501 9.22221 277.004 9.22221C277.607 9.22221 278.075 9.0989 278.407 8.85236C278.74 8.59508 278.906 8.26272 278.906 7.85538C278.906 7.42653 278.744 7.11568 278.423 6.92272C278.101 6.71903 277.588 6.61719 276.883 6.61719C276.249 6.61719 275.831 6.62791 275.63 6.64935V4.59106C275.751 4.60178 276.169 4.60714 276.883 4.60714C278.121 4.60714 278.74 4.22656 278.74 3.46543C278.74 3.05806 278.563 2.74717 278.211 2.53277C277.869 2.30764 277.422 2.19508 276.868 2.19508C275.891 2.19508 275.041 2.56493 274.317 3.30462L273.245 1.87347C274.191 0.737116 275.474 0.168945 277.094 0.168945C278.272 0.168945 279.197 0.431589 279.872 0.956885C280.556 1.48218 280.898 2.18972 280.898 3.0795C280.898 3.72272 280.682 4.26409 280.249 4.70362C279.816 5.13243 279.298 5.4058 278.694 5.52372C279.288 5.58804 279.826 5.85069 280.309 6.31166C280.803 6.76191 281.049 7.35689 281.049 8.09658C281.049 9.02925 280.687 9.79035 279.962 10.38C279.238 10.9589 278.276 11.2484 277.079 11.2484Z" fill="#667085"/>
<path d="M338.634 11.0552H336.491V8.83612H331.676V7.03511L335.676 0.32959H338.634V6.82607H339.932V8.83612H338.634V11.0552ZM336.491 6.82607V2.35572L333.774 6.82607H336.491Z" fill="#667085"/>
<path d="M394.408 11.2482C392.747 11.2482 391.454 10.7122 390.528 9.64014L391.721 8.04819C392.425 8.8308 393.316 9.22205 394.392 9.22205C394.966 9.22205 395.419 9.072 395.751 8.7718C396.093 8.46094 396.264 8.08034 396.264 7.63009C396.264 7.14768 396.103 6.76175 395.781 6.4723C395.459 6.18285 395.016 6.03814 394.453 6.03814C393.618 6.03814 392.913 6.32757 392.34 6.90647L390.845 6.48839V0.32959H397.759V2.33964H392.989V4.96074C393.552 4.36041 394.292 4.06024 395.208 4.06024C396.103 4.06024 396.863 4.3765 397.487 5.00899C398.121 5.64148 398.438 6.48303 398.438 7.53362C398.438 8.67 398.071 9.57582 397.336 10.2512C396.601 10.9158 395.625 11.2482 394.408 11.2482Z" fill="#667085"/>
<path d="M453.14 11.2484C451.691 11.2484 450.604 10.7338 449.88 9.70463C449.155 8.67548 448.793 7.34613 448.793 5.71669C448.793 4.05505 449.211 2.71501 450.046 1.69658C450.881 0.678161 452.028 0.168945 453.487 0.168945C454.654 0.168945 455.646 0.538795 456.461 1.27849L455.495 3.03126C454.941 2.4738 454.272 2.19508 453.487 2.19508C452.752 2.19508 452.149 2.48988 451.676 3.0795C451.203 3.65839 450.967 4.37665 450.967 5.23427C450.967 5.33076 450.971 5.4058 450.982 5.4594C451.234 5.07347 451.596 4.7465 452.068 4.47849C452.541 4.21048 453.039 4.07648 453.563 4.07648C454.518 4.07648 455.329 4.38737 455.993 5.00915C456.657 5.6202 456.989 6.47246 456.989 7.56593C456.989 8.62724 456.632 9.50633 455.917 10.2031C455.203 10.8999 454.277 11.2484 453.14 11.2484ZM453.019 9.22221C453.563 9.22221 453.996 9.06141 454.317 8.7398C454.65 8.41819 454.816 8.05367 454.816 7.64633C454.816 7.12101 454.634 6.72439 454.272 6.45638C453.91 6.17766 453.467 6.03829 452.944 6.03829C452.139 6.03829 451.484 6.37598 450.982 7.05136C451.032 7.65166 451.223 8.16623 451.555 8.59508C451.887 9.01317 452.375 9.22221 453.019 9.22221Z" fill="#667085"/>
<path d="M511.894 11.0552H509.539L513.147 2.33964H508.075V0.32959H515.637V1.92155L511.894 11.0552Z" fill="#667085"/>
<path d="M569.834 11.2484C568.698 11.2484 567.736 10.9911 566.951 10.4765C566.177 9.96191 565.789 9.22754 565.789 8.27347C565.789 7.65166 565.99 7.0996 566.393 6.61719C566.796 6.12405 567.314 5.75957 567.948 5.52372C566.619 5.03058 565.955 4.18905 565.955 2.9991C565.955 2.06643 566.337 1.36425 567.102 0.892563C567.877 0.410151 568.788 0.168945 569.834 0.168945C570.499 0.168945 571.113 0.260071 571.676 0.442312C572.239 0.624553 572.717 0.940805 573.11 1.39106C573.513 1.83058 573.714 2.3666 573.714 2.9991C573.714 4.17832 573.045 5.01987 571.706 5.52372C572.34 5.75957 572.858 6.12405 573.261 6.61719C573.673 7.0996 573.88 7.65166 573.88 8.27347C573.88 9.21689 573.487 9.95116 572.702 10.4765C571.917 10.9911 570.962 11.2484 569.834 11.2484ZM569.834 4.62322C570.247 4.5589 570.63 4.41953 570.982 4.20513C571.344 3.99073 571.525 3.70663 571.525 3.35287C571.525 2.97766 571.369 2.68285 571.057 2.46844C570.745 2.24332 570.337 2.13076 569.834 2.13076C569.332 2.13076 568.918 2.24332 568.597 2.46844C568.284 2.68285 568.129 2.97766 568.129 3.35287C568.129 3.70663 568.31 3.99073 568.672 4.20513C569.034 4.41953 569.422 4.5589 569.834 4.62322ZM569.834 9.28654C570.358 9.28654 570.8 9.16864 571.163 8.93277C571.525 8.68623 571.706 8.36995 571.706 7.98402C571.706 7.58734 571.499 7.26573 571.087 7.0192C570.684 6.77263 570.267 6.61719 569.834 6.55287C569.401 6.61719 568.979 6.77263 568.566 7.0192C568.164 7.26573 567.963 7.58734 567.963 7.98402C567.963 8.36995 568.139 8.68623 568.491 8.93277C568.853 9.16864 569.301 9.28654 569.834 9.28654Z" fill="#667085"/>
<path d="M627.721 11.2327C626.524 11.2327 625.537 10.8628 624.763 10.1231L625.714 8.3704C626.267 8.92789 626.936 9.20658 627.721 9.20658C628.506 9.20658 629.12 8.91181 629.563 8.32216C630.015 7.72186 630.242 7.00892 630.242 6.18347V5.94226C629.981 6.32819 629.613 6.65516 629.14 6.92317C628.667 7.19121 628.169 7.32518 627.646 7.32518C626.69 7.32518 625.875 7.01965 625.2 6.40859C624.536 5.78681 624.204 4.9292 624.204 3.83573C624.204 2.77442 624.562 1.89536 625.276 1.19854C626 0.501732 626.931 0.15332 628.068 0.15332C629.045 0.15332 629.865 0.410607 630.529 0.92518C631.203 1.43975 631.681 2.1044 631.963 2.91915C632.254 3.72317 632.4 4.65047 632.4 5.70105C632.4 7.35201 631.982 8.68668 631.148 9.70508C630.322 10.7234 629.181 11.2327 627.721 11.2327ZM628.249 5.36337C629.054 5.36337 629.714 5.03103 630.227 4.36638C630.177 3.76605 629.985 3.25148 629.653 2.82266C629.321 2.39385 628.828 2.17945 628.174 2.17945C627.631 2.17945 627.198 2.34025 626.876 2.66186C626.554 2.98347 626.393 3.34796 626.393 3.75533C626.393 4.28062 626.574 4.68263 626.936 4.96136C627.298 5.22937 627.736 5.36337 628.249 5.36337Z" fill="#667085"/>
<path d="M684.619 11.0554H682.475V3.27246L680.8 5.08955L679.577 3.72272L682.747 0.329749H684.619V11.0554ZM692.636 10.4283C691.991 10.975 691.212 11.2484 690.296 11.2484C689.38 11.2484 688.595 10.975 687.941 10.4283C687.297 9.87076 686.835 9.18472 686.553 8.36995C686.271 7.55518 686.13 6.66543 686.13 5.7006C686.13 4.73578 686.271 3.846 686.553 3.03126C686.835 2.21651 687.297 1.53578 687.941 0.989046C688.595 0.442312 689.38 0.168945 690.296 0.168945C691.212 0.168945 691.991 0.442312 692.636 0.989046C693.28 1.53578 693.742 2.21651 694.024 3.03126C694.316 3.846 694.462 4.73578 694.462 5.7006C694.462 6.66543 694.316 7.55518 694.024 8.36995C693.742 9.18472 693.28 9.87076 692.636 10.4283ZM688.787 8.25739C689.108 8.90061 689.612 9.22221 690.296 9.22221C690.98 9.22221 691.478 8.90061 691.79 8.25739C692.112 7.61417 692.273 6.76191 692.273 5.7006C692.273 4.6393 692.112 3.79239 691.79 3.1599C691.478 2.51669 690.98 2.19508 690.296 2.19508C689.612 2.19508 689.108 2.51669 688.787 3.1599C688.465 3.79239 688.304 4.6393 688.304 5.7006C688.304 6.76191 688.465 7.61417 688.787 8.25739Z" fill="#667085"/>
<path d="M744.053 11.0552H741.91V3.2723L740.234 5.08939L739.012 3.72255L742.182 0.32959H744.053V11.0552ZM750.259 11.0552H748.115V3.2723L746.44 5.08939L745.217 3.72255L748.387 0.32959H750.259V11.0552Z" fill="#667085"/>
<path d="M808.287 11.0552H806.219L801.419 4.06024V11.0552H799.275V0.32959H801.479L806.143 7.06727V0.32959H808.287V11.0552Z" fill="#667085"/>
<path d="M864.807 11.0552H862.664V3.2723L860.988 5.08939L859.766 3.72255L862.935 0.32959H864.807V11.0552Z" fill="#667085"/>
<path d="M924.49 11.0554H916.913V9.27045C919.067 7.56593 920.49 6.35454 921.185 5.63628C921.889 4.90731 922.241 4.22656 922.241 3.59407C922.241 3.15454 922.08 2.81149 921.758 2.56493C921.437 2.31836 921.053 2.19508 920.611 2.19508C919.554 2.19508 918.653 2.60781 917.909 3.43327L916.687 1.92171C917.159 1.34282 917.738 0.908644 918.422 0.619197C919.117 0.319026 919.831 0.168945 920.566 0.168945C921.672 0.168945 922.588 0.47983 923.313 1.10161C924.048 1.72339 924.415 2.5542 924.415 3.59407C924.415 4.47314 924.087 5.33611 923.434 6.18302C922.789 7.0192 921.773 7.97327 920.385 9.04533H924.49V11.0554Z" fill="#667085"/>
<path d="M978.966 11.2484C978.08 11.2484 977.295 11.0929 976.611 10.782C975.927 10.4604 975.389 10.0423 974.996 9.52774L976.113 8.0001C976.456 8.37528 976.878 8.67548 977.381 8.90061C977.884 9.11498 978.388 9.22221 978.89 9.22221C979.494 9.22221 979.962 9.0989 980.294 8.85236C980.626 8.59508 980.792 8.26272 980.792 7.85538C980.792 7.42653 980.631 7.11568 980.309 6.92272C979.988 6.71903 979.474 6.61719 978.77 6.61719C978.136 6.61719 977.718 6.62791 977.517 6.64935V4.59106C977.638 4.60178 978.056 4.60714 978.77 4.60714C980.007 4.60714 980.626 4.22656 980.626 3.46543C980.626 3.05806 980.45 2.74717 980.098 2.53277C979.756 2.30764 979.308 2.19508 978.755 2.19508C977.778 2.19508 976.928 2.56493 976.204 3.30462L975.132 1.87347C976.078 0.737116 977.361 0.168945 978.981 0.168945C980.158 0.168945 981.084 0.431589 981.758 0.956885C982.442 1.48218 982.785 2.18972 982.785 3.0795C982.785 3.72272 982.569 4.26409 982.136 4.70362C981.703 5.13243 981.185 5.4058 980.581 5.52372C981.174 5.58804 981.713 5.85069 982.196 6.31166C982.69 6.76191 982.936 7.35689 982.936 8.09658C982.936 9.02925 982.573 9.79035 981.849 10.38C981.124 10.9589 980.163 11.2484 978.966 11.2484Z" fill="#667085"/>
<path d="M1040.53 11.0552H1038.38V8.83612H1033.57V7.03511L1037.57 0.32959H1040.53V6.82607H1041.82V8.83612H1040.53V11.0552ZM1038.38 6.82607V2.35572L1035.66 6.82607H1038.38Z" fill="#667085"/>
<path d="M1096.3 11.2482C1094.64 11.2482 1093.35 10.7122 1092.42 9.64014L1093.61 8.04819C1094.31 8.8308 1095.21 9.22205 1096.28 9.22205C1096.86 9.22205 1097.31 9.072 1097.64 8.7718C1097.98 8.46094 1098.15 8.08034 1098.15 7.63009C1098.15 7.14768 1097.99 6.76175 1097.67 6.4723C1097.35 6.18285 1096.91 6.03814 1096.34 6.03814C1095.51 6.03814 1094.8 6.32757 1094.23 6.90647L1092.74 6.48839V0.32959H1099.65V2.33964H1094.88V4.96074C1095.44 4.36041 1096.18 4.06024 1097.09 4.06024C1097.99 4.06024 1098.75 4.3765 1099.38 5.00899C1100.01 5.64148 1100.33 6.48303 1100.33 7.53362C1100.33 8.67 1099.96 9.57582 1099.23 10.2512C1098.49 10.9158 1097.52 11.2482 1096.3 11.2482Z" fill="#667085"/>
<path d="M1155.03 11.2484C1153.59 11.2484 1152.49 10.7338 1151.77 9.70463C1151.05 8.67548 1150.68 7.34613 1150.68 5.71669C1150.68 4.05505 1151.1 2.71501 1151.93 1.69658C1152.77 0.678161 1153.92 0.168945 1155.38 0.168945C1156.55 0.168945 1157.54 0.538795 1158.35 1.27849L1157.39 3.03126C1156.83 2.4738 1156.16 2.19508 1155.38 2.19508C1154.64 2.19508 1154.04 2.48988 1153.57 3.0795C1153.09 3.65839 1152.86 4.37665 1152.86 5.23427C1152.86 5.33076 1152.86 5.4058 1152.87 5.4594C1153.12 5.07347 1153.48 4.7465 1153.96 4.47849C1154.43 4.21048 1154.93 4.07648 1155.45 4.07648C1156.41 4.07648 1157.22 4.38737 1157.89 5.00915C1158.55 5.6202 1158.88 6.47246 1158.88 7.56593C1158.88 8.62724 1158.52 9.50633 1157.81 10.2031C1157.09 10.8999 1156.17 11.2484 1155.03 11.2484ZM1154.91 9.22221C1155.45 9.22221 1155.89 9.06141 1156.21 8.7398C1156.54 8.41819 1156.71 8.05367 1156.71 7.64633C1156.71 7.12101 1156.53 6.72439 1156.16 6.45638C1155.8 6.17766 1155.36 6.03829 1154.83 6.03829C1154.03 6.03829 1153.38 6.37598 1152.87 7.05136C1152.92 7.65166 1153.11 8.16623 1153.44 8.59508C1153.77 9.01317 1154.26 9.22221 1154.91 9.22221Z" fill="#667085"/>
<path d="M1213.78 11.0552H1211.43L1215.04 2.33964H1209.96V0.32959H1217.53V1.92155L1213.78 11.0552Z" fill="#667085"/>
<path d="M1271.73 11.2484C1270.59 11.2484 1269.62 10.9911 1268.84 10.4765C1268.07 9.96191 1267.68 9.22754 1267.68 8.27347C1267.68 7.65166 1267.88 7.0996 1268.28 6.61719C1268.69 6.12405 1269.21 5.75957 1269.84 5.52372C1268.51 5.03058 1267.85 4.18905 1267.85 2.9991C1267.85 2.06643 1268.23 1.36425 1268.99 0.892563C1269.76 0.410151 1270.68 0.168945 1271.73 0.168945C1272.39 0.168945 1273 0.260071 1273.57 0.442312C1274.13 0.624553 1274.6 0.940805 1275 1.39106C1275.41 1.83058 1275.6 2.3666 1275.6 2.9991C1275.6 4.17832 1274.93 5.01987 1273.59 5.52372C1274.23 5.75957 1274.75 6.12405 1275.15 6.61719C1275.57 7.0996 1275.77 7.65166 1275.77 8.27347C1275.77 9.21689 1275.38 9.95116 1274.59 10.4765C1273.81 10.9911 1272.85 11.2484 1271.73 11.2484ZM1271.73 4.62322C1272.14 4.5589 1272.52 4.41953 1272.87 4.20513C1273.24 3.99073 1273.42 3.70663 1273.42 3.35287C1273.42 2.97766 1273.26 2.68285 1272.94 2.46844C1272.63 2.24332 1272.23 2.13076 1271.73 2.13076C1271.22 2.13076 1270.81 2.24332 1270.49 2.46844C1270.18 2.68285 1270.02 2.97766 1270.02 3.35287C1270.02 3.70663 1270.2 3.99073 1270.57 4.20513C1270.92 4.41953 1271.31 4.5589 1271.73 4.62322ZM1271.73 9.28654C1272.25 9.28654 1272.69 9.16864 1273.06 8.93277C1273.42 8.68623 1273.59 8.36995 1273.59 7.98402C1273.59 7.58734 1273.39 7.26573 1272.98 7.0192C1272.58 6.77263 1272.16 6.61719 1271.73 6.55287C1271.29 6.61719 1270.87 6.77263 1270.45 7.0192C1270.06 7.26573 1269.85 7.58734 1269.85 7.98402C1269.85 8.36995 1270.03 8.68623 1270.38 8.93277C1270.75 9.16864 1271.19 9.28654 1271.73 9.28654Z" fill="#667085"/>
<path d="M1329.61 11.2327C1328.41 11.2327 1327.42 10.8628 1326.65 10.1231L1327.6 8.3704C1328.16 8.92789 1328.83 9.20658 1329.61 9.20658C1330.4 9.20658 1331.01 8.91181 1331.45 8.32216C1331.91 7.72186 1332.13 7.00892 1332.13 6.18347V5.94226C1331.87 6.32819 1331.5 6.65516 1331.03 6.92317C1330.56 7.19121 1330.06 7.32518 1329.54 7.32518C1328.57 7.32518 1327.76 7.01965 1327.09 6.40859C1326.42 5.78681 1326.09 4.9292 1326.09 3.83573C1326.09 2.77442 1326.45 1.89536 1327.17 1.19854C1327.89 0.501732 1328.82 0.15332 1329.96 0.15332C1330.93 0.15332 1331.75 0.410607 1332.41 0.92518C1333.09 1.43975 1333.57 2.1044 1333.85 2.91915C1334.14 3.72317 1334.29 4.65047 1334.29 5.70105C1334.29 7.35201 1333.88 8.68668 1333.04 9.70508C1332.22 10.7234 1331.07 11.2327 1329.61 11.2327ZM1330.14 5.36337C1330.94 5.36337 1331.6 5.03103 1332.11 4.36638C1332.07 3.76605 1331.88 3.25148 1331.55 2.82266C1331.21 2.39385 1330.72 2.17945 1330.07 2.17945C1329.52 2.17945 1329.08 2.34025 1328.76 2.66186C1328.44 2.98347 1328.28 3.34796 1328.28 3.75533C1328.28 4.28062 1328.46 4.68263 1328.83 4.96136C1329.19 5.22937 1329.62 5.36337 1330.14 5.36337Z" fill="#667085"/>
<path d="M1386.51 11.0554H1384.37V3.27246L1382.69 5.08955L1381.47 3.72272L1384.64 0.329749H1386.51V11.0554ZM1394.53 10.4283C1393.89 10.975 1393.1 11.2484 1392.19 11.2484C1391.27 11.2484 1390.49 10.975 1389.83 10.4283C1389.19 9.87076 1388.73 9.18472 1388.44 8.36995C1388.16 7.55518 1388.02 6.66543 1388.02 5.7006C1388.02 4.73578 1388.16 3.846 1388.44 3.03126C1388.73 2.21651 1389.19 1.53578 1389.83 0.989046C1390.49 0.442312 1391.27 0.168945 1392.19 0.168945C1393.1 0.168945 1393.89 0.442312 1394.53 0.989046C1395.17 1.53578 1395.63 2.21651 1395.92 3.03126C1396.21 3.846 1396.35 4.73578 1396.35 5.7006C1396.35 6.66543 1396.21 7.55518 1395.92 8.36995C1395.63 9.18472 1395.17 9.87076 1394.53 10.4283ZM1390.68 8.25739C1391 8.90061 1391.5 9.22221 1392.19 9.22221C1392.87 9.22221 1393.37 8.90061 1393.68 8.25739C1394 7.61417 1394.16 6.76191 1394.16 5.7006C1394.16 4.6393 1394 3.79239 1393.68 3.1599C1393.37 2.51669 1392.87 2.19508 1392.19 2.19508C1391.5 2.19508 1391 2.51669 1390.68 3.1599C1390.36 3.79239 1390.2 4.6393 1390.2 5.7006C1390.2 6.76191 1390.36 7.61417 1390.68 8.25739Z" fill="#667085"/>
<path d="M1445.94 11.0552H1443.8V3.2723L1442.12 5.08939L1440.91 3.72255L1444.08 0.32959H1445.94V11.0552ZM1452.15 11.0552H1450.01V3.2723L1448.33 5.08939L1447.1 3.72255L1450.27 0.32959H1452.15V11.0552Z" fill="#667085"/>
<path d="M1511.13 11.0552H1508.98V3.54567L1506.14 11.0552H1505.21L1502.37 3.54567V11.0552H1500.23V0.32959H1503.23L1505.67 6.80999L1508.11 0.32959H1511.13V11.0552Z" fill="#667085"/>
<path d="M5.25283 57.4798C3.73333 57.4798 2.47547 56.9599 1.47925 55.92C0.493085 54.8694 0 53.5401 0 51.932C0 50.324 0.493085 49.0001 1.47925 47.9602C2.47547 46.9096 3.73333 46.3843 5.25283 46.3843C6.78239 46.3843 8.04025 46.9042 9.02641 47.9441C10.0226 48.984 10.5208 50.3132 10.5208 51.932C10.5208 53.5508 10.0226 54.8801 9.02641 55.92C8.04025 56.9599 6.78239 57.4798 5.25283 57.4798ZM3.03396 54.4566C3.59748 55.1213 4.3371 55.4536 5.25283 55.4536C6.16856 55.4536 6.90818 55.1213 7.4717 54.4566C8.03522 53.792 8.31698 52.9504 8.31698 51.932C8.31698 50.9136 8.03522 50.072 7.4717 49.4074C6.90818 48.7428 6.16856 48.4104 5.25283 48.4104C4.3371 48.4104 3.59748 48.7428 3.03396 49.4074C2.4805 50.072 2.20377 50.9136 2.20377 51.932C2.20377 52.9504 2.4805 53.792 3.03396 54.4566ZM14.1683 57.2868H12.0249V46.5612H19.1494V48.5712H14.1683V50.8385H19.0438V52.8486H14.1683V57.2868ZM22.7915 57.2868H20.6481V46.5612H27.7726V48.5712H22.7915V50.8385H27.667V52.8486H22.7915V57.2868Z" fill="#667085"/>
<path d="M13.4939 99.6902C11.7027 99.6902 10.2838 99.1224 9.2373 97.9857L10.3996 96.249C11.265 97.2139 12.3317 97.6963 13.5996 97.6963C14.1531 97.6963 14.5807 97.5837 14.8826 97.3586C15.1946 97.1227 15.3505 96.8387 15.3505 96.5063C15.3505 96.2169 15.2046 95.9757 14.9128 95.7827C14.631 95.5897 14.2738 95.4503 13.8411 95.3646C13.4184 95.2789 12.9555 95.1556 12.4524 94.9948C11.9493 94.834 11.4814 94.6517 11.0486 94.448C10.626 94.2443 10.2687 93.9227 9.97694 93.4832C9.69514 93.0437 9.5543 92.5076 9.5543 91.8752C9.5543 90.9533 9.90147 90.1814 10.5958 89.5596C11.2901 88.9271 12.2159 88.6108 13.3732 88.6108C14.9732 88.6108 16.2814 89.1093 17.2977 90.1063L16.1052 91.7787C15.3102 90.9961 14.3342 90.6048 13.1769 90.6048C12.7241 90.6048 12.3719 90.7013 12.1203 90.8943C11.8687 91.0872 11.743 91.3498 11.743 91.6822C11.743 91.9395 11.8838 92.1593 12.1656 92.3415C12.4574 92.513 12.8147 92.6417 13.2373 92.7274C13.67 92.8132 14.1329 92.9418 14.626 93.1134C15.1291 93.2742 15.592 93.4618 16.0147 93.6762C16.4474 93.8799 16.8046 94.2068 17.0864 94.6571C17.3782 95.0966 17.5241 95.6272 17.5241 96.249C17.5241 97.2782 17.1769 98.1093 16.4826 98.7415C15.7984 99.3737 14.8021 99.6902 13.4939 99.6902ZM24.4315 99.4973H18.9672V88.7716H24.2654C25.1811 88.7716 25.8905 89.0397 26.3937 89.5757C26.9069 90.101 27.1635 90.7442 27.1635 91.5053C27.1635 92.1593 26.9975 92.706 26.6654 93.1455C26.3334 93.585 25.9207 93.8584 25.4277 93.9656C25.9711 94.0513 26.4289 94.3462 26.8013 94.85C27.1735 95.3539 27.3598 95.9382 27.3598 96.6028C27.3598 97.439 27.1032 98.1304 26.59 98.6772C26.0767 99.2239 25.3572 99.4973 24.4315 99.4973ZM23.7975 93.0651C24.1598 93.0651 24.4466 92.9579 24.6579 92.7435C24.8692 92.5291 24.9749 92.2503 24.9749 91.9073C24.9749 91.5643 24.8641 91.2855 24.6428 91.0711C24.4315 90.846 24.1497 90.7335 23.7975 90.7335H21.1107V93.0651H23.7975ZM23.873 97.5194C24.2754 97.5194 24.5924 97.4121 24.8239 97.1978C25.0553 96.9726 25.1711 96.6671 25.1711 96.2812C25.1711 95.9274 25.0553 95.6326 24.8239 95.3968C24.5924 95.1502 24.2754 95.0269 23.873 95.0269H21.1107V97.5194H23.873Z" fill="#667085"/>
<path d="M12.9434 140.704H8.97363V129.978H12.9434C14.5233 129.978 15.8064 130.471 16.7925 131.457C17.7887 132.443 18.2868 133.741 18.2868 135.349C18.2868 136.957 17.7937 138.254 16.8076 139.24C15.8215 140.216 14.5333 140.704 12.9434 140.704ZM12.9434 138.694C13.9095 138.694 14.6743 138.372 15.2378 137.729C15.8114 137.086 16.0982 136.293 16.0982 135.349C16.0982 134.363 15.8215 133.559 15.268 132.937C14.7145 132.305 13.9397 131.988 12.9434 131.988H11.117V138.694H12.9434ZM27.9589 140.704H25.4985L23.5212 136.893H21.9514V140.704H19.808V129.978H24.5174C25.5538 129.978 26.374 130.3 26.9778 130.943C27.5915 131.586 27.8985 132.417 27.8985 133.435C27.8985 134.315 27.6821 135.027 27.2495 135.574C26.8268 136.121 26.3085 136.469 25.6948 136.619L27.9589 140.704ZM24.2004 134.883C24.6431 134.883 25.0054 134.754 25.2872 134.497C25.5689 134.228 25.7098 133.875 25.7098 133.435C25.7098 132.996 25.5689 132.647 25.2872 132.39C25.0054 132.122 24.6431 131.988 24.2004 131.988H21.9514V134.883H24.2004Z" fill="#667085"/>
<path d="M11.8563 182.102C10.3368 182.102 9.07899 181.583 8.08276 180.543C7.0966 179.492 6.60352 178.163 6.60352 176.555C6.60352 174.947 7.0966 173.623 8.08276 172.583C9.07899 171.532 10.3368 171.007 11.8563 171.007C13.3859 171.007 14.6438 171.526 15.6299 172.567C16.6262 173.607 17.1243 174.935 17.1243 176.555C17.1243 178.174 16.6262 179.502 15.6299 180.543C14.6438 181.583 13.3859 182.102 11.8563 182.102ZM9.63748 179.079C10.201 179.744 10.9406 180.076 11.8563 180.076C12.7721 180.076 13.5117 179.744 14.0752 179.079C14.6387 178.415 14.9205 177.573 14.9205 176.555C14.9205 175.536 14.6387 174.694 14.0752 174.03C13.5117 173.366 12.7721 173.033 11.8563 173.033C10.9406 173.033 10.201 173.366 9.63748 174.03C9.08399 174.694 8.80729 175.536 8.80729 176.555C8.80729 177.573 9.08399 178.415 9.63748 179.079ZM27.6397 181.909H25.5718L20.7718 174.914V181.909H18.6284V171.184H20.8322L25.4963 177.921V171.184H27.6397V181.909Z" fill="#667085"/>
<path d="M147.562 10.2614V2.57955H149.091V10.2614H147.562ZM144.489 7.18182V5.65341H152.17V7.18182H144.489Z" fill="#667085"/>
</svg>
