<?xml version="1.0" encoding="utf-8"?>
<!-- Generator: Adobe Illustrator 26.5.0, SVG Export Plug-In . SVG Version: 6.00 Build 0)  -->
<svg version="1.1" id="Layer_1" xmlns="http://www.w3.org/2000/svg" xmlns:xlink="http://www.w3.org/1999/xlink" x="0px" y="0px"
	 viewBox="0 0 1539.7 352" style="enable-background:new 0 0 1539.7 352;" xml:space="preserve">
<style type="text/css">
	.st0{fill:#2E90FA;}
	.st1{fill:#16B364;}
	.st2{fill:#FAC515;}
	.st3{fill:#FFFFFF;}
</style>
<g id="Logo">
	<path class="st0" d="M255.4,49.9L49.9,255.4c-6.7,6.7-18,5.6-23.2-2.4C9.8,227.3,0,196.5,0,163.5C0,73.1,73.1,0,163.5,0
		c33.1,0,63.8,9.8,89.6,26.7C261,31.9,262.2,43.2,255.4,49.9z"/>
	<path class="st1" d="M326.9,163.5c0,33.1-9.8,63.9-26.7,89.6c-5,7.6-15.6,9.3-22.5,3.3c-28.7-24.9-66.2-40-107.2-40c-1,0-2,0-3,0
		c-13.4,0.2-20.3-16.1-10.8-25.6L276.6,70.9c6.7-6.7,17.9-5.6,23.2,2.4C316.9,99.1,326.9,130.1,326.9,163.5L326.9,163.5z"/>
	<path class="st2" d="M257.8,280.8c5.6,4,5.6,12.3,0,16.2c-26.6,18.8-59.2,29.9-94.3,29.9S95.8,315.8,69.2,297
		c-5.6-4-5.6-12.3,0-16.2c26.6-18.9,59.2-29.9,94.3-29.9S231.1,261.9,257.8,280.8L257.8,280.8z"/>
</g>
<g>
	<path class="st3" d="M405.1,245.2V81.6h34.6v135.1h70.1v28.5H405.1z"/>
	<path class="st3" d="M631.6,81.6h34.6v106.3c0,11.9-2.8,22.4-8.5,31.3c-5.7,8.9-13.6,15.9-23.8,20.9c-10.2,5-22,7.5-35.6,7.5
		s-25.5-2.5-35.6-7.5c-10.2-5-18.1-11.9-23.7-20.9c-5.7-8.9-8.5-19.4-8.5-31.3V81.6h34.6v103.3c0,6.2,1.4,11.8,4.1,16.6
		c2.7,4.9,6.6,8.7,11.6,11.4c5,2.8,10.8,4.2,17.5,4.2s12.6-1.4,17.5-4.2c5-2.8,8.8-6.6,11.6-11.4c2.7-4.9,4.1-10.4,4.1-16.6
		L631.6,81.6L631.6,81.6z"/>
	<path class="st3" d="M836.8,138.9h-35c-0.6-4.5-2-8.6-3.9-12.1s-4.5-6.6-7.6-9.1c-3.1-2.5-6.6-4.4-10.7-5.8c-4-1.3-8.4-2-13.1-2
		c-8.5,0-15.8,2.1-22.1,6.3c-6.3,4.2-11.2,10.2-14.6,18.2c-3.5,8-5.2,17.6-5.2,29s1.7,21.5,5.2,29.4c3.5,7.9,8.4,13.9,14.7,18
		c6.3,4.1,13.6,6.1,21.8,6.1c4.6,0,8.9-0.6,12.9-1.8c4-1.2,7.5-3,10.6-5.4s5.7-5.3,7.7-8.7c2-3.4,3.5-7.3,4.3-11.7l35,0.2
		c-0.9,7.5-3.2,14.7-6.8,21.7c-3.6,6.9-8.4,13.2-14.5,18.6c-6,5.5-13.2,9.8-21.6,12.9c-8.3,3.2-17.8,4.8-28.2,4.8
		c-14.6,0-27.6-3.3-39.1-9.9c-11.5-6.6-20.5-16.2-27.2-28.7c-6.6-12.5-10-27.7-10-45.5s3.4-33,10.1-45.5s15.8-22.1,27.3-28.6
		c11.5-6.6,24.5-9.9,38.8-9.9c9.5,0,18.3,1.3,26.4,4c8.1,2.7,15.3,6.5,21.6,11.6c6.3,5.1,11.4,11.3,15.4,18.7
		C833.1,121,835.6,129.4,836.8,138.9L836.8,138.9z"/>
	<path class="st3" d="M894,81.6v163.6h-34.6V81.6H894z"/>
	<path class="st3" d="M978.2,245.2h-58V81.6h58.5c16.5,0,30.6,3.3,42.5,9.8s21,15.9,27.4,28.1c6.4,12.2,9.6,26.8,9.6,43.8
		s-3.2,31.7-9.6,43.9c-6.4,12.2-15.6,21.6-27.6,28.2S994.9,245.2,978.2,245.2L978.2,245.2z M954.8,215.6h22
		c10.2,0,18.8-1.8,25.8-5.5c7-3.6,12.3-9.3,15.8-17s5.3-17.6,5.3-29.8s-1.8-22-5.3-29.6s-8.8-13.3-15.8-16.9
		c-7-3.6-15.6-5.4-25.8-5.4h-22L954.8,215.6L954.8,215.6z"/>
	<path class="st3" d="M1131.6,245.2V81.6h110.3v28.5h-75.7v39h70v28.5h-70v39.1h76v28.5L1131.6,245.2L1131.6,245.2z"/>
	<path class="st3" d="M1267.1,245.2V81.6h34.6v135.1h70.2v28.5H1267.1z"/>
	<path class="st3" d="M1450.6,245.2h-58V81.6h58.5c16.5,0,30.6,3.3,42.5,9.8s21,15.9,27.4,28.1c6.4,12.2,9.6,26.8,9.6,43.8
		s-3.2,31.7-9.6,43.9c-6.4,12.2-15.6,21.6-27.6,28.2S1467.2,245.2,1450.6,245.2z M1427.2,215.6h22c10.2,0,18.8-1.8,25.8-5.5
		c7-3.6,12.3-9.3,15.8-17c3.5-7.7,5.3-17.6,5.3-29.8s-1.8-22-5.3-29.6s-8.8-13.3-15.8-16.9s-15.6-5.4-25.8-5.4h-22.1L1427.2,215.6
		L1427.2,215.6z"/>
</g>
</svg>
